solid OpenSCAD_Model
  facet normal 0 1 0
    outer loop
      vertex -49.863 30 -42.6132
      vertex -54 30 -40
      vertex -50 30 -40
    endloop
  endfacet
  facet normal 0 1 0
    outer loop
      vertex -49.863 30 -42.6132
      vertex -53.8411 30 -43.0313
      vertex -54 30 -40
    endloop
  endfacet
  facet normal 0 1 0
    outer loop
      vertex -49.4537 30 -45.1978
      vertex -53.8411 30 -43.0313
      vertex -49.863 30 -42.6132
    endloop
  endfacet
  facet normal 0 1 0
    outer loop
      vertex -49.4537 30 -45.1978
      vertex -53.3663 30 -46.0294
      vertex -53.8411 30 -43.0313
    endloop
  endfacet
  facet normal 0 1 0
    outer loop
      vertex -48.7764 30 -47.7254
      vertex -53.3663 30 -46.0294
      vertex -49.4537 30 -45.1978
    endloop
  endfacet
  facet normal 0 1 0
    outer loop
      vertex -48.7764 30 -47.7254
      vertex -52.5806 30 -48.9615
      vertex -53.3663 30 -46.0294
    endloop
  endfacet
  facet normal 0 1 0
    outer loop
      vertex -47.8386 30 -50.1684
      vertex -52.5806 30 -48.9615
      vertex -48.7764 30 -47.7254
    endloop
  endfacet
  facet normal 0 1 0
    outer loop
      vertex -47.8386 30 -50.1684
      vertex -51.4928 30 -51.7954
      vertex -52.5806 30 -48.9615
    endloop
  endfacet
  facet normal 0 1 0
    outer loop
      vertex -46.6506 30 -52.5
      vertex -51.4928 30 -51.7954
      vertex -47.8386 30 -50.1684
    endloop
  endfacet
  facet normal 0 1 0
    outer loop
      vertex -46.6506 30 -52.5
      vertex -50.1147 30 -54.5
      vertex -51.4928 30 -51.7954
    endloop
  endfacet
  facet normal 0 1 0
    outer loop
      vertex -45.2254 30 -54.6946
      vertex -50.1147 30 -54.5
      vertex -46.6506 30 -52.5
    endloop
  endfacet
  facet normal 0 1 0
    outer loop
      vertex -48.4615 30 -57.0458
      vertex -45.2254 30 -54.6946
      vertex -43.5786 30 -56.7283
    endloop
  endfacet
  facet normal 0 1 0
    outer loop
      vertex -45.2254 30 -54.6946
      vertex -48.4615 30 -57.0458
      vertex -50.1147 30 -54.5
    endloop
  endfacet
  facet normal 0 1 0
    outer loop
      vertex -46.5512 30 -59.4048
      vertex -43.5786 30 -56.7283
      vertex -41.7283 30 -58.5786
    endloop
  endfacet
  facet normal 0 1 0
    outer loop
      vertex -43.5786 30 -56.7283
      vertex -46.5512 30 -59.4048
      vertex -48.4615 30 -57.0458
    endloop
  endfacet
  facet normal 0 1 0
    outer loop
      vertex -44.4048 30 -61.5512
      vertex -41.7283 30 -58.5786
      vertex -39.6946 30 -60.2254
    endloop
  endfacet
  facet normal 0 1 0
    outer loop
      vertex -41.7283 30 -58.5786
      vertex -44.4048 30 -61.5512
      vertex -46.5512 30 -59.4048
    endloop
  endfacet
  facet normal 0 1 0
    outer loop
      vertex -42.0458 30 -63.4615
      vertex -39.6946 30 -60.2254
      vertex -37.5 30 -61.6506
    endloop
  endfacet
  facet normal 0 1 0
    outer loop
      vertex -39.5 30 -65.1147
      vertex -37.5 30 -61.6506
      vertex -35.1684 30 -62.8386
    endloop
  endfacet
  facet normal 0 1 0
    outer loop
      vertex -39.6946 30 -60.2254
      vertex -42.0458 30 -63.4615
      vertex -44.4048 30 -61.5512
    endloop
  endfacet
  facet normal 0 1 0
    outer loop
      vertex -36.7954 30 -66.4928
      vertex -35.1684 30 -62.8386
      vertex -32.7254 30 -63.7764
    endloop
  endfacet
  facet normal 0 1 0
    outer loop
      vertex -33.9615 30 -67.5806
      vertex -32.7254 30 -63.7764
      vertex -30.1978 30 -64.4537
    endloop
  endfacet
  facet normal 0 1 0
    outer loop
      vertex -31.0294 30 -68.3663
      vertex -30.1978 30 -64.4537
      vertex -27.6132 30 -64.863
    endloop
  endfacet
  facet normal 0 1 0
    outer loop
      vertex -37.5 30 -61.6506
      vertex -39.5 30 -65.1147
      vertex -42.0458 30 -63.4615
    endloop
  endfacet
  facet normal 0 1 0
    outer loop
      vertex -28.0313 30 -68.8411
      vertex -27.6132 30 -64.863
      vertex -25 30 -65
    endloop
  endfacet
  facet normal 0 1 0
    outer loop
      vertex -35.1684 30 -62.8386
      vertex -36.7954 30 -66.4928
      vertex -39.5 30 -65.1147
    endloop
  endfacet
  facet normal 0 1 0
    outer loop
      vertex -32.7254 30 -63.7764
      vertex -33.9615 30 -67.5806
      vertex -36.7954 30 -66.4928
    endloop
  endfacet
  facet normal 0 1 0
    outer loop
      vertex -30.1978 30 -64.4537
      vertex -31.0294 30 -68.3663
      vertex -33.9615 30 -67.5806
    endloop
  endfacet
  facet normal 0 1 0
    outer loop
      vertex -27.6132 30 -64.863
      vertex -28.0313 30 -68.8411
      vertex -31.0294 30 -68.3663
    endloop
  endfacet
  facet normal -0 1 0
    outer loop
      vertex -28.0313 30 -68.8411
      vertex -25 30 -65
      vertex -25 30 -69
    endloop
  endfacet
  facet normal 0 -1 0
    outer loop
      vertex -54 0 -40
      vertex -49.863 0 -42.6132
      vertex -50 0 -40
    endloop
  endfacet
  facet normal 0 -1 0
    outer loop
      vertex -53.8411 0 -43.0313
      vertex -49.863 0 -42.6132
      vertex -54 0 -40
    endloop
  endfacet
  facet normal 0 -1 0
    outer loop
      vertex -53.8411 0 -43.0313
      vertex -49.4537 0 -45.1978
      vertex -49.863 0 -42.6132
    endloop
  endfacet
  facet normal 0 -1 0
    outer loop
      vertex -53.3663 0 -46.0294
      vertex -49.4537 0 -45.1978
      vertex -53.8411 0 -43.0313
    endloop
  endfacet
  facet normal 0 -1 0
    outer loop
      vertex -53.3663 0 -46.0294
      vertex -48.7764 0 -47.7254
      vertex -49.4537 0 -45.1978
    endloop
  endfacet
  facet normal 0 -1 0
    outer loop
      vertex -52.5806 0 -48.9615
      vertex -48.7764 0 -47.7254
      vertex -53.3663 0 -46.0294
    endloop
  endfacet
  facet normal 0 -1 0
    outer loop
      vertex -52.5806 0 -48.9615
      vertex -47.8386 0 -50.1684
      vertex -48.7764 0 -47.7254
    endloop
  endfacet
  facet normal 0 -1 0
    outer loop
      vertex -51.4928 0 -51.7954
      vertex -47.8386 0 -50.1684
      vertex -52.5806 0 -48.9615
    endloop
  endfacet
  facet normal 0 -1 0
    outer loop
      vertex -51.4928 0 -51.7954
      vertex -46.6506 0 -52.5
      vertex -47.8386 0 -50.1684
    endloop
  endfacet
  facet normal 0 -1 0
    outer loop
      vertex -50.1147 0 -54.5
      vertex -46.6506 0 -52.5
      vertex -51.4928 0 -51.7954
    endloop
  endfacet
  facet normal 0 -1 0
    outer loop
      vertex -50.1147 0 -54.5
      vertex -45.2254 0 -54.6946
      vertex -46.6506 0 -52.5
    endloop
  endfacet
  facet normal 0 -1 0
    outer loop
      vertex -48.4615 0 -57.0458
      vertex -45.2254 0 -54.6946
      vertex -50.1147 0 -54.5
    endloop
  endfacet
  facet normal 0 -1 -0
    outer loop
      vertex -45.2254 0 -54.6946
      vertex -48.4615 0 -57.0458
      vertex -43.5786 0 -56.7283
    endloop
  endfacet
  facet normal 0 -1 0
    outer loop
      vertex -46.5512 0 -59.4048
      vertex -43.5786 0 -56.7283
      vertex -48.4615 0 -57.0458
    endloop
  endfacet
  facet normal 0 -1 -0
    outer loop
      vertex -43.5786 0 -56.7283
      vertex -46.5512 0 -59.4048
      vertex -41.7283 0 -58.5786
    endloop
  endfacet
  facet normal 0 -1 0
    outer loop
      vertex -44.4048 0 -61.5512
      vertex -41.7283 0 -58.5786
      vertex -46.5512 0 -59.4048
    endloop
  endfacet
  facet normal 0 -1 -0
    outer loop
      vertex -41.7283 0 -58.5786
      vertex -44.4048 0 -61.5512
      vertex -39.6946 0 -60.2254
    endloop
  endfacet
  facet normal 0 -1 0
    outer loop
      vertex -42.0458 0 -63.4615
      vertex -39.6946 0 -60.2254
      vertex -44.4048 0 -61.5512
    endloop
  endfacet
  facet normal 0 -1 -0
    outer loop
      vertex -39.6946 0 -60.2254
      vertex -42.0458 0 -63.4615
      vertex -37.5 0 -61.6506
    endloop
  endfacet
  facet normal 0 -1 0
    outer loop
      vertex -39.5 0 -65.1147
      vertex -37.5 0 -61.6506
      vertex -42.0458 0 -63.4615
    endloop
  endfacet
  facet normal 0 -1 -0
    outer loop
      vertex -37.5 0 -61.6506
      vertex -39.5 0 -65.1147
      vertex -35.1684 0 -62.8386
    endloop
  endfacet
  facet normal 0 -1 0
    outer loop
      vertex -36.7954 0 -66.4928
      vertex -35.1684 0 -62.8386
      vertex -39.5 0 -65.1147
    endloop
  endfacet
  facet normal 0 -1 -0
    outer loop
      vertex -35.1684 0 -62.8386
      vertex -36.7954 0 -66.4928
      vertex -32.7254 0 -63.7764
    endloop
  endfacet
  facet normal 0 -1 0
    outer loop
      vertex -33.9615 0 -67.5806
      vertex -32.7254 0 -63.7764
      vertex -36.7954 0 -66.4928
    endloop
  endfacet
  facet normal 0 -1 -0
    outer loop
      vertex -32.7254 0 -63.7764
      vertex -33.9615 0 -67.5806
      vertex -30.1978 0 -64.4537
    endloop
  endfacet
  facet normal 0 -1 0
    outer loop
      vertex -31.0294 0 -68.3663
      vertex -30.1978 0 -64.4537
      vertex -33.9615 0 -67.5806
    endloop
  endfacet
  facet normal 0 -1 -0
    outer loop
      vertex -30.1978 0 -64.4537
      vertex -31.0294 0 -68.3663
      vertex -27.6132 0 -64.863
    endloop
  endfacet
  facet normal 0 -1 0
    outer loop
      vertex -28.0313 0 -68.8411
      vertex -27.6132 0 -64.863
      vertex -31.0294 0 -68.3663
    endloop
  endfacet
  facet normal 0 -1 -0
    outer loop
      vertex -27.6132 0 -64.863
      vertex -28.0313 0 -68.8411
      vertex -25 0 -65
    endloop
  endfacet
  facet normal 0 -1 -0
    outer loop
      vertex -25 0 -65
      vertex -28.0313 0 -68.8411
      vertex -25 0 -69
    endloop
  endfacet
  facet normal -0.707107 0 -0.707107
    outer loop
      vertex -44.4048 0 -61.5512
      vertex -46.5512 30 -59.4048
      vertex -44.4048 30 -61.5512
    endloop
  endfacet
  facet normal -0.707107 -0 -0.707107
    outer loop
      vertex -46.5512 30 -59.4048
      vertex -44.4048 0 -61.5512
      vertex -46.5512 0 -59.4048
    endloop
  endfacet
  facet normal -0.544625 0 -0.83868
    outer loop
      vertex -42.0458 0 -63.4615
      vertex -39.5 30 -65.1147
      vertex -39.5 0 -65.1147
    endloop
  endfacet
  facet normal -0.544625 0 -0.83868
    outer loop
      vertex -39.5 30 -65.1147
      vertex -42.0458 0 -63.4615
      vertex -42.0458 30 -63.4615
    endloop
  endfacet
  facet normal -0.358359 0 -0.933584
    outer loop
      vertex -36.7954 0 -66.4928
      vertex -33.9615 30 -67.5806
      vertex -33.9615 0 -67.5806
    endloop
  endfacet
  facet normal -0.358359 0 -0.933584
    outer loop
      vertex -33.9615 30 -67.5806
      vertex -36.7954 0 -66.4928
      vertex -36.7954 30 -66.4928
    endloop
  endfacet
  facet normal -0.156418 0 -0.987691
    outer loop
      vertex -31.0294 0 -68.3663
      vertex -28.0313 30 -68.8411
      vertex -28.0313 0 -68.8411
    endloop
  endfacet
  facet normal -0.156418 0 -0.987691
    outer loop
      vertex -28.0313 30 -68.8411
      vertex -31.0294 0 -68.3663
      vertex -31.0294 30 -68.3663
    endloop
  endfacet
  facet normal -0.933584 0 -0.358359
    outer loop
      vertex -51.4928 0 -51.7954
      vertex -52.5806 30 -48.9615
      vertex -51.4928 30 -51.7954
    endloop
  endfacet
  facet normal -0.933584 -0 -0.358359
    outer loop
      vertex -52.5806 30 -48.9615
      vertex -51.4928 0 -51.7954
      vertex -52.5806 0 -48.9615
    endloop
  endfacet
  facet normal -0.83868 0 -0.544625
    outer loop
      vertex -48.4615 0 -57.0458
      vertex -50.1147 30 -54.5
      vertex -48.4615 30 -57.0458
    endloop
  endfacet
  facet normal -0.83868 -0 -0.544625
    outer loop
      vertex -50.1147 30 -54.5
      vertex -48.4615 0 -57.0458
      vertex -50.1147 0 -54.5
    endloop
  endfacet
  facet normal -0.965922 0 -0.258833
    outer loop
      vertex -52.5806 0 -48.9615
      vertex -53.3663 30 -46.0294
      vertex -52.5806 30 -48.9615
    endloop
  endfacet
  facet normal -0.965922 -0 -0.258833
    outer loop
      vertex -53.3663 30 -46.0294
      vertex -52.5806 0 -48.9615
      vertex -53.3663 0 -46.0294
    endloop
  endfacet
  facet normal -0.998629 0 -0.0523479
    outer loop
      vertex -53.8411 0 -43.0313
      vertex -54 30 -40
      vertex -53.8411 30 -43.0313
    endloop
  endfacet
  facet normal -0.998629 -0 -0.0523479
    outer loop
      vertex -54 30 -40
      vertex -53.8411 0 -43.0313
      vertex -54 0 -40
    endloop
  endfacet
  facet normal -0.629324 0 -0.777143
    outer loop
      vertex -44.4048 0 -61.5512
      vertex -42.0458 30 -63.4615
      vertex -42.0458 0 -63.4615
    endloop
  endfacet
  facet normal -0.629324 0 -0.777143
    outer loop
      vertex -42.0458 30 -63.4615
      vertex -44.4048 0 -61.5512
      vertex -44.4048 30 -61.5512
    endloop
  endfacet
  facet normal -0.454 0 -0.891002
    outer loop
      vertex -39.5 0 -65.1147
      vertex -36.7954 30 -66.4928
      vertex -36.7954 0 -66.4928
    endloop
  endfacet
  facet normal -0.454 0 -0.891002
    outer loop
      vertex -36.7954 30 -66.4928
      vertex -39.5 0 -65.1147
      vertex -39.5 30 -65.1147
    endloop
  endfacet
  facet normal -0.258833 0 -0.965922
    outer loop
      vertex -33.9615 0 -67.5806
      vertex -31.0294 30 -68.3663
      vertex -31.0294 0 -68.3663
    endloop
  endfacet
  facet normal -0.258833 0 -0.965922
    outer loop
      vertex -31.0294 30 -68.3663
      vertex -33.9615 0 -67.5806
      vertex -33.9615 30 -67.5806
    endloop
  endfacet
  facet normal -0.0523479 0 -0.998629
    outer loop
      vertex -28.0313 0 -68.8411
      vertex -25 30 -69
      vertex -25 0 -69
    endloop
  endfacet
  facet normal -0.0523479 0 -0.998629
    outer loop
      vertex -25 30 -69
      vertex -28.0313 0 -68.8411
      vertex -28.0313 30 -68.8411
    endloop
  endfacet
  facet normal -0.891002 0 -0.454
    outer loop
      vertex -50.1147 0 -54.5
      vertex -51.4928 30 -51.7954
      vertex -50.1147 30 -54.5
    endloop
  endfacet
  facet normal -0.891002 -0 -0.454
    outer loop
      vertex -51.4928 30 -51.7954
      vertex -50.1147 0 -54.5
      vertex -51.4928 0 -51.7954
    endloop
  endfacet
  facet normal -0.777143 0 -0.629324
    outer loop
      vertex -46.5512 0 -59.4048
      vertex -48.4615 30 -57.0458
      vertex -46.5512 30 -59.4048
    endloop
  endfacet
  facet normal -0.777143 -0 -0.629324
    outer loop
      vertex -48.4615 30 -57.0458
      vertex -46.5512 0 -59.4048
      vertex -48.4615 0 -57.0458
    endloop
  endfacet
  facet normal -0.987691 0 -0.156418
    outer loop
      vertex -53.3663 0 -46.0294
      vertex -53.8411 30 -43.0313
      vertex -53.3663 30 -46.0294
    endloop
  endfacet
  facet normal -0.987691 -0 -0.156418
    outer loop
      vertex -53.8411 30 -43.0313
      vertex -53.3663 0 -46.0294
      vertex -53.8411 0 -43.0313
    endloop
  endfacet
  facet normal 0.453988 0 0.891008
    outer loop
      vertex -37.5 30 -61.6506
      vertex -35.1684 0 -62.8386
      vertex -35.1684 30 -62.8386
    endloop
  endfacet
  facet normal 0.453988 0 0.891008
    outer loop
      vertex -35.1684 0 -62.8386
      vertex -37.5 30 -61.6506
      vertex -37.5 0 -61.6506
    endloop
  endfacet
  facet normal 0.156412 0 0.987692
    outer loop
      vertex -30.1978 30 -64.4537
      vertex -27.6132 0 -64.863
      vertex -27.6132 30 -64.863
    endloop
  endfacet
  facet normal 0.156412 0 0.987692
    outer loop
      vertex -27.6132 0 -64.863
      vertex -30.1978 30 -64.4537
      vertex -30.1978 0 -64.4537
    endloop
  endfacet
  facet normal 0.707107 -0 0.707107
    outer loop
      vertex -43.5786 0 -56.7283
      vertex -41.7283 30 -58.5786
      vertex -43.5786 30 -56.7283
    endloop
  endfacet
  facet normal 0.707107 0 0.707107
    outer loop
      vertex -41.7283 30 -58.5786
      vertex -43.5786 0 -56.7283
      vertex -41.7283 0 -58.5786
    endloop
  endfacet
  facet normal 0.987692 -0 0.156412
    outer loop
      vertex -49.863 0 -42.6132
      vertex -49.4537 30 -45.1978
      vertex -49.863 30 -42.6132
    endloop
  endfacet
  facet normal 0.987692 0 0.156412
    outer loop
      vertex -49.4537 30 -45.1978
      vertex -49.863 0 -42.6132
      vertex -49.4537 0 -45.1978
    endloop
  endfacet
  facet normal 0.0523542 0 0.998629
    outer loop
      vertex -27.6132 30 -64.863
      vertex -25 0 -65
      vertex -25 30 -65
    endloop
  endfacet
  facet normal 0.0523542 0 0.998629
    outer loop
      vertex -25 0 -65
      vertex -27.6132 30 -64.863
      vertex -27.6132 0 -64.863
    endloop
  endfacet
  facet normal 0.358375 0 0.933578
    outer loop
      vertex -35.1684 30 -62.8386
      vertex -32.7254 0 -63.7764
      vertex -32.7254 30 -63.7764
    endloop
  endfacet
  facet normal 0.358375 0 0.933578
    outer loop
      vertex -32.7254 0 -63.7764
      vertex -35.1684 30 -62.8386
      vertex -35.1684 0 -62.8386
    endloop
  endfacet
  facet normal 0.544642 0 0.838669
    outer loop
      vertex -39.6946 30 -60.2254
      vertex -37.5 0 -61.6506
      vertex -37.5 30 -61.6506
    endloop
  endfacet
  facet normal 0.544642 0 0.838669
    outer loop
      vertex -37.5 0 -61.6506
      vertex -39.6946 30 -60.2254
      vertex -39.6946 0 -60.2254
    endloop
  endfacet
  facet normal 0.965923 -0 0.25883
    outer loop
      vertex -49.4537 0 -45.1978
      vertex -48.7764 30 -47.7254
      vertex -49.4537 30 -45.1978
    endloop
  endfacet
  facet normal 0.965923 0 0.25883
    outer loop
      vertex -48.7764 30 -47.7254
      vertex -49.4537 0 -45.1978
      vertex -48.7764 0 -47.7254
    endloop
  endfacet
  facet normal 0.998629 -0 0.0523542
    outer loop
      vertex -50 0 -40
      vertex -49.863 30 -42.6132
      vertex -50 30 -40
    endloop
  endfacet
  facet normal 0.998629 0 0.0523542
    outer loop
      vertex -49.863 30 -42.6132
      vertex -50 0 -40
      vertex -49.863 0 -42.6132
    endloop
  endfacet
  facet normal 0.777157 -0 0.629307
    outer loop
      vertex -45.2254 0 -54.6946
      vertex -43.5786 30 -56.7283
      vertex -45.2254 30 -54.6946
    endloop
  endfacet
  facet normal 0.777157 0 0.629307
    outer loop
      vertex -43.5786 30 -56.7283
      vertex -45.2254 0 -54.6946
      vertex -43.5786 0 -56.7283
    endloop
  endfacet
  facet normal 0.891008 -0 0.453988
    outer loop
      vertex -47.8386 0 -50.1684
      vertex -46.6506 30 -52.5
      vertex -47.8386 30 -50.1684
    endloop
  endfacet
  facet normal 0.891008 0 0.453988
    outer loop
      vertex -46.6506 30 -52.5
      vertex -47.8386 0 -50.1684
      vertex -46.6506 0 -52.5
    endloop
  endfacet
  facet normal 0.25883 0 0.965923
    outer loop
      vertex -32.7254 30 -63.7764
      vertex -30.1978 0 -64.4537
      vertex -30.1978 30 -64.4537
    endloop
  endfacet
  facet normal 0.25883 0 0.965923
    outer loop
      vertex -30.1978 0 -64.4537
      vertex -32.7254 30 -63.7764
      vertex -32.7254 0 -63.7764
    endloop
  endfacet
  facet normal 0.629307 0 0.777157
    outer loop
      vertex -41.7283 30 -58.5786
      vertex -39.6946 0 -60.2254
      vertex -39.6946 30 -60.2254
    endloop
  endfacet
  facet normal 0.629307 0 0.777157
    outer loop
      vertex -39.6946 0 -60.2254
      vertex -41.7283 30 -58.5786
      vertex -41.7283 0 -58.5786
    endloop
  endfacet
  facet normal 0.933578 -0 0.358375
    outer loop
      vertex -48.7764 0 -47.7254
      vertex -47.8386 30 -50.1684
      vertex -48.7764 30 -47.7254
    endloop
  endfacet
  facet normal 0.933578 0 0.358375
    outer loop
      vertex -47.8386 30 -50.1684
      vertex -48.7764 0 -47.7254
      vertex -47.8386 0 -50.1684
    endloop
  endfacet
  facet normal 0.838669 -0 0.544642
    outer loop
      vertex -46.6506 0 -52.5
      vertex -45.2254 30 -54.6946
      vertex -46.6506 30 -52.5
    endloop
  endfacet
  facet normal 0.838669 0 0.544642
    outer loop
      vertex -45.2254 30 -54.6946
      vertex -46.6506 0 -52.5
      vertex -45.2254 0 -54.6946
    endloop
  endfacet
  facet normal -0 0 1
    outer loop
      vertex -54 30 -40
      vertex -50 0 -40
      vertex -50 30 -40
    endloop
  endfacet
  facet normal 0 0 1
    outer loop
      vertex -50 0 -40
      vertex -54 30 -40
      vertex -54 0 -40
    endloop
  endfacet
  facet normal 1 -0 0
    outer loop
      vertex -25 0 -65
      vertex -25 30 -69
      vertex -25 30 -65
    endloop
  endfacet
  facet normal 1 0 0
    outer loop
      vertex -25 30 -69
      vertex -25 0 -65
      vertex -25 0 -69
    endloop
  endfacet
  facet normal -1 0 0
    outer loop
      vertex 4 0 4
      vertex 4 30 10
      vertex 4 30 4
    endloop
  endfacet
  facet normal -1 -0 0
    outer loop
      vertex 4 30 10
      vertex 4 0 4
      vertex 4 0 10
    endloop
  endfacet
  facet normal 0 0 -1
    outer loop
      vertex 4 0 0
      vertex 40 30 0
      vertex 40 0 0
    endloop
  endfacet
  facet normal -0 0 -1
    outer loop
      vertex 40 30 0
      vertex 4 0 0
      vertex 4 30 0
    endloop
  endfacet
  facet normal 0 0 -1
    outer loop
      vertex -46 0 0
      vertex 0 30 0
      vertex 0 0 0
    endloop
  endfacet
  facet normal -0 0 -1
    outer loop
      vertex 0 30 0
      vertex -46 0 0
      vertex -46 30 0
    endloop
  endfacet
  facet normal 0 -1 0
    outer loop
      vertex 0 0 -30
      vertex 4 0 0
      vertex 0 0 0
    endloop
  endfacet
  facet normal 0 -1 -0
    outer loop
      vertex 4 0 0
      vertex 0 0 -30
      vertex 4 0 -30
    endloop
  endfacet
  facet normal 0 -1 0
    outer loop
      vertex 0 0 0
      vertex 4 0 4
      vertex -50 0 4
    endloop
  endfacet
  facet normal 0 -1 0
    outer loop
      vertex 4 0 0
      vertex 4 0 4
      vertex 0 0 0
    endloop
  endfacet
  facet normal 0 -1 0
    outer loop
      vertex 0 0 0
      vertex -50 0 4
      vertex -46 0 0
    endloop
  endfacet
  facet normal 0 -1 0
    outer loop
      vertex -50 0 -15
      vertex -46 0 0
      vertex -50 0 4
    endloop
  endfacet
  facet normal 0 -1 -0
    outer loop
      vertex -46 0 0
      vertex -50 0 -15
      vertex -46 0 -15
    endloop
  endfacet
  facet normal 0 -1 0
    outer loop
      vertex 4 0 4
      vertex 4.12312 0 8.43565
      vertex 4 0 10
    endloop
  endfacet
  facet normal 0 -1 0
    outer loop
      vertex 4 0 4
      vertex 4.48943 0 6.90983
      vertex 4.12312 0 8.43565
    endloop
  endfacet
  facet normal 0 -1 0
    outer loop
      vertex 4 0 4
      vertex 5.08993 0 5.46009
      vertex 4.48943 0 6.90983
    endloop
  endfacet
  facet normal 0 -1 0
    outer loop
      vertex 4 0 4
      vertex 5.90983 0 4.12215
      vertex 5.08993 0 5.46009
    endloop
  endfacet
  facet normal 0 -1 -0
    outer loop
      vertex 5.90983 0 4.12215
      vertex 4 0 4
      vertex 6.01415 0 4
    endloop
  endfacet
  facet normal 0 -1 0
    outer loop
      vertex 4 0 4
      vertex 4 0 0
      vertex 6.01415 0 4
    endloop
  endfacet
  facet normal 0 -1 0
    outer loop
      vertex 40 0 0
      vertex 6.01415 0 4
      vertex 4 0 0
    endloop
  endfacet
  facet normal 0 -1 0
    outer loop
      vertex 6.01415 0 4
      vertex 40 0 0
      vertex 40 0 4
    endloop
  endfacet
  facet normal 0 1 -0
    outer loop
      vertex 4 30 -30
      vertex 0 30 0
      vertex 4 30 0
    endloop
  endfacet
  facet normal 0 1 0
    outer loop
      vertex 0 30 0
      vertex 4 30 -30
      vertex 0 30 -30
    endloop
  endfacet
  facet normal 0 1 -0
    outer loop
      vertex 40 30 0
      vertex 6.01415 30 4
      vertex 40 30 4
    endloop
  endfacet
  facet normal 0 1 0
    outer loop
      vertex 6.01415 30 4
      vertex 4 30 0
      vertex 4 30 4
    endloop
  endfacet
  facet normal 0 1 0
    outer loop
      vertex 6.01415 30 4
      vertex 40 30 0
      vertex 4 30 0
    endloop
  endfacet
  facet normal 0 1 0
    outer loop
      vertex 4 30 4
      vertex 4 30 0
      vertex 0 30 0
    endloop
  endfacet
  facet normal 0 1 0
    outer loop
      vertex 4 30 4
      vertex 0 30 0
      vertex -50 30 4
    endloop
  endfacet
  facet normal 0 1 -0
    outer loop
      vertex -46 30 0
      vertex -50 30 4
      vertex 0 30 0
    endloop
  endfacet
  facet normal 0 1 0
    outer loop
      vertex -50 30 -15
      vertex -46 30 0
      vertex -46 30 -15
    endloop
  endfacet
  facet normal 0 1 0
    outer loop
      vertex -46 30 0
      vertex -50 30 -15
      vertex -50 30 4
    endloop
  endfacet
  facet normal 0 1 0
    outer loop
      vertex 4.12312 30 8.43565
      vertex 4 30 4
      vertex 4 30 10
    endloop
  endfacet
  facet normal 0 1 0
    outer loop
      vertex 4.48943 30 6.90983
      vertex 4 30 4
      vertex 4.12312 30 8.43565
    endloop
  endfacet
  facet normal 0 1 0
    outer loop
      vertex 5.08993 30 5.46009
      vertex 4 30 4
      vertex 4.48943 30 6.90983
    endloop
  endfacet
  facet normal 0 1 0
    outer loop
      vertex 5.90983 30 4.12215
      vertex 4 30 4
      vertex 5.08993 30 5.46009
    endloop
  endfacet
  facet normal 0 1 0
    outer loop
      vertex 4 30 4
      vertex 5.90983 30 4.12215
      vertex 6.01415 30 4
    endloop
  endfacet
  facet normal 0.760424 -0 0.649427
    outer loop
      vertex 5.90983 0 4.12215
      vertex 6.01415 30 4
      vertex 5.90983 30 4.12215
    endloop
  endfacet
  facet normal 0.760424 0 0.649427
    outer loop
      vertex 6.01415 30 4
      vertex 5.90983 0 4.12215
      vertex 6.01415 0 4
    endloop
  endfacet
  facet normal 0.92388 -0 0.382682
    outer loop
      vertex 4.48943 0 6.90983
      vertex 5.08993 30 5.46009
      vertex 4.48943 30 6.90983
    endloop
  endfacet
  facet normal 0.92388 0 0.382682
    outer loop
      vertex 5.08993 30 5.46009
      vertex 4.48943 0 6.90983
      vertex 5.08993 0 5.46009
    endloop
  endfacet
  facet normal 0.852638 -0 0.522503
    outer loop
      vertex 5.08993 0 5.46009
      vertex 5.90983 30 4.12215
      vertex 5.08993 30 5.46009
    endloop
  endfacet
  facet normal 0.852638 0 0.522503
    outer loop
      vertex 5.90983 30 4.12215
      vertex 5.08993 0 5.46009
      vertex 5.90983 0 4.12215
    endloop
  endfacet
  facet normal 0.996917 -0 0.078461
    outer loop
      vertex 4 0 10
      vertex 4.12312 30 8.43565
      vertex 4 30 10
    endloop
  endfacet
  facet normal 0.996917 0 0.078461
    outer loop
      vertex 4.12312 30 8.43565
      vertex 4 0 10
      vertex 4.12312 0 8.43565
    endloop
  endfacet
  facet normal 0.972371 -0 0.233441
    outer loop
      vertex 4.12312 0 8.43565
      vertex 4.48943 30 6.90983
      vertex 4.12312 30 8.43565
    endloop
  endfacet
  facet normal 0.972371 0 0.233441
    outer loop
      vertex 4.48943 30 6.90983
      vertex 4.12312 0 8.43565
      vertex 4.48943 0 6.90983
    endloop
  endfacet
  facet normal -1 0 0
    outer loop
      vertex 0 0 -30
      vertex 0 30 0
      vertex 0 30 -30
    endloop
  endfacet
  facet normal -1 -0 0
    outer loop
      vertex 0 30 0
      vertex 0 0 -30
      vertex 0 0 0
    endloop
  endfacet
  facet normal -0 0 1
    outer loop
      vertex 6.01415 30 4
      vertex 40 0 4
      vertex 40 30 4
    endloop
  endfacet
  facet normal 0 0 1
    outer loop
      vertex 40 0 4
      vertex 6.01415 30 4
      vertex 6.01415 0 4
    endloop
  endfacet
  facet normal -0 0 1
    outer loop
      vertex -50 30 4
      vertex 4 0 4
      vertex 4 30 4
    endloop
  endfacet
  facet normal 0 0 1
    outer loop
      vertex 4 0 4
      vertex -50 30 4
      vertex -50 0 4
    endloop
  endfacet
  facet normal 1 -0 0
    outer loop
      vertex 40 0 4
      vertex 40 30 0
      vertex 40 30 4
    endloop
  endfacet
  facet normal 1 0 0
    outer loop
      vertex 40 30 0
      vertex 40 0 4
      vertex 40 0 0
    endloop
  endfacet
  facet normal -1 0 0
    outer loop
      vertex 20 0 -30
      vertex 20 30 -18.2
      vertex 20 30 -30
    endloop
  endfacet
  facet normal -1 -0 0
    outer loop
      vertex 20 30 -18.2
      vertex 20 0 -30
      vertex 20 0 -18.2
    endloop
  endfacet
  facet normal -0 0 1
    outer loop
      vertex 24 30 -26
      vertex 40 0 -26
      vertex 40 30 -26
    endloop
  endfacet
  facet normal 0 0 1
    outer loop
      vertex 40 0 -26
      vertex 24 30 -26
      vertex 24 0 -26
    endloop
  endfacet
  facet normal 1 -0 0
    outer loop
      vertex 40 0 -26
      vertex 40 30 -30
      vertex 40 30 -26
    endloop
  endfacet
  facet normal 1 0 0
    outer loop
      vertex 40 30 -30
      vertex 40 0 -26
      vertex 40 0 -30
    endloop
  endfacet
  facet normal 0 1 0
    outer loop
      vertex 40 30 -26
      vertex 40 30 -30
      vertex 24 30 -26
    endloop
  endfacet
  facet normal 0 1 -0
    outer loop
      vertex 24 30 -26
      vertex 20 30 -18.2
      vertex 24 30 -18.2
    endloop
  endfacet
  facet normal 0 1 0
    outer loop
      vertex 24 30 -26
      vertex 20 30 -30
      vertex 20 30 -18.2
    endloop
  endfacet
  facet normal 0 1 0
    outer loop
      vertex 20 30 -30
      vertex 24 30 -26
      vertex 40 30 -30
    endloop
  endfacet
  facet normal 0 0 -1
    outer loop
      vertex 20 0 -30
      vertex 40 30 -30
      vertex 40 0 -30
    endloop
  endfacet
  facet normal -0 0 -1
    outer loop
      vertex 40 30 -30
      vertex 20 0 -30
      vertex 20 30 -30
    endloop
  endfacet
  facet normal 0 -1 0
    outer loop
      vertex 20 0 -18.2
      vertex 24 0 -26
      vertex 24 0 -18.2
    endloop
  endfacet
  facet normal 0 -1 0
    outer loop
      vertex 20 0 -30
      vertex 24 0 -26
      vertex 20 0 -18.2
    endloop
  endfacet
  facet normal 0 -1 0
    outer loop
      vertex 40 0 -30
      vertex 24 0 -26
      vertex 20 0 -30
    endloop
  endfacet
  facet normal 0 -1 0
    outer loop
      vertex 24 0 -26
      vertex 40 0 -30
      vertex 40 0 -26
    endloop
  endfacet
  facet normal 1 -0 0
    outer loop
      vertex 4 0 0
      vertex 4 30 -30
      vertex 4 30 0
    endloop
  endfacet
  facet normal 1 0 0
    outer loop
      vertex 4 30 -30
      vertex 4 0 0
      vertex 4 0 -30
    endloop
  endfacet
  facet normal 0 0 -1
    outer loop
      vertex 0 0 -30
      vertex 4 30 -30
      vertex 4 0 -30
    endloop
  endfacet
  facet normal -0 0 -1
    outer loop
      vertex 4 30 -30
      vertex 0 0 -30
      vertex 0 30 -30
    endloop
  endfacet
  facet normal -0 0 1
    outer loop
      vertex 20 30 -18.2
      vertex 24 0 -18.2
      vertex 24 30 -18.2
    endloop
  endfacet
  facet normal 0 0 1
    outer loop
      vertex 24 0 -18.2
      vertex 20 30 -18.2
      vertex 20 0 -18.2
    endloop
  endfacet
  facet normal 1 -0 0
    outer loop
      vertex 24 0 -18.2
      vertex 24 30 -26
      vertex 24 30 -18.2
    endloop
  endfacet
  facet normal 1 0 0
    outer loop
      vertex 24 30 -26
      vertex 24 0 -18.2
      vertex 24 0 -26
    endloop
  endfacet
  facet normal -1 0 0
    outer loop
      vertex -50 0 -15
      vertex -50 30 4
      vertex -50 30 -15
    endloop
  endfacet
  facet normal -1 -0 0
    outer loop
      vertex -50 30 4
      vertex -50 0 -15
      vertex -50 0 4
    endloop
  endfacet
  facet normal 1 -0 0
    outer loop
      vertex -46 0 0
      vertex -46 30 -15
      vertex -46 30 0
    endloop
  endfacet
  facet normal 1 0 0
    outer loop
      vertex -46 30 -15
      vertex -46 0 0
      vertex -46 0 -15
    endloop
  endfacet
  facet normal 0 0 -1
    outer loop
      vertex -50 0 -15
      vertex -46 30 -15
      vertex -46 0 -15
    endloop
  endfacet
  facet normal -0 0 -1
    outer loop
      vertex -46 30 -15
      vertex -50 0 -15
      vertex -50 30 -15
    endloop
  endfacet
endsolid OpenSCAD_Model
