solid OpenSCAD_Model
  facet normal 0.994523 -0 0.104518
    outer loop
      vertex 19.563 49.25 26.4082
      vertex 20 77 22.25
      vertex 19.563 77 26.4082
    endloop
  endfacet
  facet normal 0.994523 0 0.104518
    outer loop
      vertex 20 77 22.25
      vertex 19.563 49.25 26.4082
      vertex 20 49.25 22.25
    endloop
  endfacet
  facet normal 0.994525 -0 0.104494
    outer loop
      vertex 19.563 17 26.4082
      vertex 19.7516 33.2518 24.6132
      vertex 19.563 36.6114 26.4082
    endloop
  endfacet
  facet normal 0.994522 4.02236e-06 0.10453
    outer loop
      vertex 19.563 17 26.4082
      vertex 20 30.0637 22.25
      vertex 19.7516 33.2518 24.6132
    endloop
  endfacet
  facet normal 0.994523 0 0.104518
    outer loop
      vertex 20 30.0637 22.25
      vertex 19.563 17 26.4082
      vertex 20 17 22.25
    endloop
  endfacet
  facet normal -0.994523 0 0.104518
    outer loop
      vertex -20 49.25 22.25
      vertex -19.563 77 26.4082
      vertex -20 77 22.25
    endloop
  endfacet
  facet normal -0.994523 0 0.104518
    outer loop
      vertex -19.563 77 26.4082
      vertex -20 49.25 22.25
      vertex -19.563 49.25 26.4082
    endloop
  endfacet
  facet normal -0.994523 0 0.104518
    outer loop
      vertex -19.563 17 26.4082
      vertex -20 30.0637 22.25
      vertex -20 17 22.25
    endloop
  endfacet
  facet normal -0.994522 4.02236e-06 0.10453
    outer loop
      vertex -20 30.0637 22.25
      vertex -19.563 17 26.4082
      vertex -19.7516 33.2518 24.6132
    endloop
  endfacet
  facet normal -0.994525 0 0.104494
    outer loop
      vertex -19.7516 33.2518 24.6132
      vertex -19.563 17 26.4082
      vertex -19.563 36.6114 26.4082
    endloop
  endfacet
  facet normal -0 0 1
    outer loop
      vertex -2.09057 77 42.1404
      vertex 2.09057 17 42.1404
      vertex 2.09057 77 42.1404
    endloop
  endfacet
  facet normal 0 0 1
    outer loop
      vertex 2.09057 17 42.1404
      vertex -2.09057 77 42.1404
      vertex -2.09057 17 42.1404
    endloop
  endfacet
  facet normal 0 0 -1
    outer loop
      vertex -2.09057 49.25 2.35956
      vertex 2.09057 77 2.35956
      vertex 2.09057 49.25 2.35956
    endloop
  endfacet
  facet normal -0 0 -1
    outer loop
      vertex 2.09057 77 2.35956
      vertex -2.09057 49.25 2.35956
      vertex -2.09057 77 2.35956
    endloop
  endfacet
  facet normal 0.587785 0 0.809017
    outer loop
      vertex 10 77 39.5705
      vertex 13.3826 17 37.1129
      vertex 13.3826 77 37.1129
    endloop
  endfacet
  facet normal 0.587785 0 0.809017
    outer loop
      vertex 13.3826 17 37.1129
      vertex 10 77 39.5705
      vertex 10 17 39.5705
    endloop
  endfacet
  facet normal 0.406732 0 0.913547
    outer loop
      vertex 6.18034 77 41.2711
      vertex 10 17 39.5705
      vertex 10 77 39.5705
    endloop
  endfacet
  facet normal 0.406732 0 0.913547
    outer loop
      vertex 10 17 39.5705
      vertex 6.18034 77 41.2711
      vertex 6.18034 17 41.2711
    endloop
  endfacet
  facet normal -0.743149 0 0.669126
    outer loop
      vertex -16.1803 17 34.0057
      vertex -13.3826 77 37.1129
      vertex -16.1803 77 34.0057
    endloop
  endfacet
  facet normal -0.743149 0 0.669126
    outer loop
      vertex -13.3826 77 37.1129
      vertex -16.1803 17 34.0057
      vertex -13.3826 17 37.1129
    endloop
  endfacet
  facet normal -0.866024 0 0.500003
    outer loop
      vertex -18.2709 49.25 30.3847
      vertex -16.1803 77 34.0057
      vertex -18.2709 77 30.3847
    endloop
  endfacet
  facet normal -0.866024 0 0.500003
    outer loop
      vertex -18.2709 44.75 30.3847
      vertex -16.1803 77 34.0057
      vertex -18.2709 49.25 30.3847
    endloop
  endfacet
  facet normal -0.866024 0 0.500003
    outer loop
      vertex -16.1803 17 34.0057
      vertex -18.2709 44.75 30.3847
      vertex -18.2709 17 30.3847
    endloop
  endfacet
  facet normal -0.866024 0 0.500003
    outer loop
      vertex -18.2709 44.75 30.3847
      vertex -16.1803 17 34.0057
      vertex -16.1803 77 34.0057
    endloop
  endfacet
  facet normal -0.406732 0 0.913547
    outer loop
      vertex -10 77 39.5705
      vertex -6.18034 17 41.2711
      vertex -6.18034 77 41.2711
    endloop
  endfacet
  facet normal -0.406732 0 0.913547
    outer loop
      vertex -6.18034 17 41.2711
      vertex -10 77 39.5705
      vertex -10 17 39.5705
    endloop
  endfacet
  facet normal 0.951053 0 -0.309029
    outer loop
      vertex 19.563 49.25 18.0918
      vertex 18.2709 77 14.1153
      vertex 19.563 77 18.0918
    endloop
  endfacet
  facet normal 0.951053 0 -0.309029
    outer loop
      vertex 18.2709 77 14.1153
      vertex 19.563 49.25 18.0918
      vertex 18.2709 49.25 14.1153
    endloop
  endfacet
  facet normal 0.951053 0 -0.309029
    outer loop
      vertex 19.563 17 18.0918
      vertex 18.2709 22.4135 14.1153
      vertex 19.563 25.5828 18.0918
    endloop
  endfacet
  facet normal 0.951053 0 -0.309029
    outer loop
      vertex 18.2709 22.4135 14.1153
      vertex 19.563 17 18.0918
      vertex 18.2709 17 14.1153
    endloop
  endfacet
  facet normal 0.866024 0 0.500003
    outer loop
      vertex 16.1803 77 34.0057
      vertex 18.2709 49.25 30.3847
      vertex 18.2709 77 30.3847
    endloop
  endfacet
  facet normal 0.866024 0 0.500003
    outer loop
      vertex 16.1803 77 34.0057
      vertex 18.2709 44.75 30.3847
      vertex 18.2709 49.25 30.3847
    endloop
  endfacet
  facet normal 0.866024 -0 0.500003
    outer loop
      vertex 16.1803 17 34.0057
      vertex 18.2709 44.75 30.3847
      vertex 16.1803 77 34.0057
    endloop
  endfacet
  facet normal 0.866024 0 0.500003
    outer loop
      vertex 18.2709 44.75 30.3847
      vertex 16.1803 17 34.0057
      vertex 18.2709 17 30.3847
    endloop
  endfacet
  facet normal 0.951052 -0 0.309031
    outer loop
      vertex 18.2709 17 30.3847
      vertex 19.1647 38.2715 27.634
      vertex 18.2709 44.75 30.3847
    endloop
  endfacet
  facet normal 0.951053 -5.03756e-07 0.309027
    outer loop
      vertex 18.2709 17 30.3847
      vertex 19.563 36.6114 26.4082
      vertex 19.1647 38.2715 27.634
    endloop
  endfacet
  facet normal 0.951053 0 0.309029
    outer loop
      vertex 19.563 36.6114 26.4082
      vertex 18.2709 17 30.3847
      vertex 19.563 17 26.4082
    endloop
  endfacet
  facet normal 0.951053 -0 0.309029
    outer loop
      vertex 18.2709 49.25 30.3847
      vertex 19.563 77 26.4082
      vertex 18.2709 77 30.3847
    endloop
  endfacet
  facet normal 0.951053 0 0.309029
    outer loop
      vertex 19.563 77 26.4082
      vertex 18.2709 49.25 30.3847
      vertex 19.563 49.25 26.4082
    endloop
  endfacet
  facet normal 0.743149 -0 0.669126
    outer loop
      vertex 13.3826 17 37.1129
      vertex 16.1803 77 34.0057
      vertex 13.3826 77 37.1129
    endloop
  endfacet
  facet normal 0.743149 0 0.669126
    outer loop
      vertex 16.1803 77 34.0057
      vertex 13.3826 17 37.1129
      vertex 16.1803 17 34.0057
    endloop
  endfacet
  facet normal 0.20791 0 0.978148
    outer loop
      vertex 2.09057 77 42.1404
      vertex 6.18034 17 41.2711
      vertex 6.18034 77 41.2711
    endloop
  endfacet
  facet normal 0.20791 0 0.978148
    outer loop
      vertex 6.18034 17 41.2711
      vertex 2.09057 77 42.1404
      vertex 2.09057 17 42.1404
    endloop
  endfacet
  facet normal -0.951053 0 0.309029
    outer loop
      vertex -19.563 49.25 26.4082
      vertex -18.2709 77 30.3847
      vertex -19.563 77 26.4082
    endloop
  endfacet
  facet normal -0.951053 0 0.309029
    outer loop
      vertex -18.2709 77 30.3847
      vertex -19.563 49.25 26.4082
      vertex -18.2709 49.25 30.3847
    endloop
  endfacet
  facet normal -0.951053 0 0.309029
    outer loop
      vertex -18.2709 17 30.3847
      vertex -19.563 36.6114 26.4082
      vertex -19.563 17 26.4082
    endloop
  endfacet
  facet normal -0.951053 -5.03756e-07 0.309027
    outer loop
      vertex -19.563 36.6114 26.4082
      vertex -18.2709 17 30.3847
      vertex -19.1647 38.2715 27.634
    endloop
  endfacet
  facet normal -0.951052 0 0.309031
    outer loop
      vertex -19.1647 38.2715 27.634
      vertex -18.2709 17 30.3847
      vertex -18.2709 44.75 30.3847
    endloop
  endfacet
  facet normal 0 -1 0
    outer loop
      vertex -1.62019 17 37.6651
      vertex -2.09057 17 42.1404
      vertex -6.18034 17 41.2711
    endloop
  endfacet
  facet normal 0 -1 0
    outer loop
      vertex -2.09057 17 42.1404
      vertex -1.62019 17 37.6651
      vertex 2.09057 17 42.1404
    endloop
  endfacet
  facet normal 0 -1 0
    outer loop
      vertex -4.78976 17 36.9914
      vertex -6.18034 17 41.2711
      vertex -10 17 39.5705
    endloop
  endfacet
  facet normal 0 -1 0
    outer loop
      vertex 1.62019 17 37.6651
      vertex 2.09057 17 42.1404
      vertex -1.62019 17 37.6651
    endloop
  endfacet
  facet normal 0 -1 -0
    outer loop
      vertex 2.09057 17 42.1404
      vertex 1.62019 17 37.6651
      vertex 6.18034 17 41.2711
    endloop
  endfacet
  facet normal 0 -1 0
    outer loop
      vertex -7.75 17 35.6734
      vertex -10 17 39.5705
      vertex -13.3826 17 37.1129
    endloop
  endfacet
  facet normal 0 -1 0
    outer loop
      vertex -6.18034 17 41.2711
      vertex -4.78976 17 36.9914
      vertex -1.62019 17 37.6651
    endloop
  endfacet
  facet normal 0 -1 0
    outer loop
      vertex -10 17 39.5705
      vertex -7.75 17 35.6734
      vertex -4.78976 17 36.9914
    endloop
  endfacet
  facet normal 0 -1 0
    outer loop
      vertex -10.3715 17 33.7687
      vertex -13.3826 17 37.1129
      vertex -16.1803 17 34.0057
    endloop
  endfacet
  facet normal 0 -1 0
    outer loop
      vertex -13.3826 17 37.1129
      vertex -10.3715 17 33.7687
      vertex -7.75 17 35.6734
    endloop
  endfacet
  facet normal 0 -1 0
    outer loop
      vertex -16.1803 17 34.0057
      vertex -12.5398 17 31.3607
      vertex -10.3715 17 33.7687
    endloop
  endfacet
  facet normal 0 -1 0
    outer loop
      vertex -18.2709 17 30.3847
      vertex -12.5398 17 31.3607
      vertex -16.1803 17 34.0057
    endloop
  endfacet
  facet normal 0 -1 0
    outer loop
      vertex -18.2709 17 30.3847
      vertex -14.16 17 28.5544
      vertex -12.5398 17 31.3607
    endloop
  endfacet
  facet normal 0 -1 0
    outer loop
      vertex -19.563 17 26.4082
      vertex -14.16 17 28.5544
      vertex -18.2709 17 30.3847
    endloop
  endfacet
  facet normal 0 -1 0
    outer loop
      vertex -19.563 17 26.4082
      vertex -15.1613 17 25.4726
      vertex -14.16 17 28.5544
    endloop
  endfacet
  facet normal 0 -1 0
    outer loop
      vertex -20 17 22.25
      vertex -15.1613 17 25.4726
      vertex -19.563 17 26.4082
    endloop
  endfacet
  facet normal 0 -1 0
    outer loop
      vertex -20 17 22.25
      vertex -15.5 17 22.25
      vertex -15.1613 17 25.4726
    endloop
  endfacet
  facet normal 0 -1 0
    outer loop
      vertex -20 17 22.25
      vertex -15.1613 17 19.0274
      vertex -15.5 17 22.25
    endloop
  endfacet
  facet normal 0 -1 0
    outer loop
      vertex -19.563 17 18.0918
      vertex -15.1613 17 19.0274
      vertex -20 17 22.25
    endloop
  endfacet
  facet normal 0 -1 0
    outer loop
      vertex -19.563 17 18.0918
      vertex -14.16 17 15.9456
      vertex -15.1613 17 19.0274
    endloop
  endfacet
  facet normal 0 -1 0
    outer loop
      vertex -18.2709 17 14.1153
      vertex -14.16 17 15.9456
      vertex -19.563 17 18.0918
    endloop
  endfacet
  facet normal 0 -1 0
    outer loop
      vertex -18.2709 17 14.1153
      vertex -12.5398 17 13.1393
      vertex -14.16 17 15.9456
    endloop
  endfacet
  facet normal 0 -1 0
    outer loop
      vertex -16.1803 17 10.4943
      vertex -12.5398 17 13.1393
      vertex -18.2709 17 14.1153
    endloop
  endfacet
  facet normal 0 -1 -0
    outer loop
      vertex -12.5398 17 13.1393
      vertex -16.1803 17 10.4943
      vertex -10.3715 17 10.7313
    endloop
  endfacet
  facet normal 0 -1 0
    outer loop
      vertex -13.3826 17 7.3871
      vertex -10.3715 17 10.7313
      vertex -16.1803 17 10.4943
    endloop
  endfacet
  facet normal 0 -1 0
    outer loop
      vertex -13.2944 17 7.32303
      vertex -10.3715 17 10.7313
      vertex -13.3826 17 7.3871
    endloop
  endfacet
  facet normal 0 -1 -0
    outer loop
      vertex -10.3715 17 10.7313
      vertex -13.2944 17 7.32303
      vertex -7.75 17 8.82661
    endloop
  endfacet
  facet normal 0 -1 -0
    outer loop
      vertex -7.75 17 8.82661
      vertex -13.2944 17 7.32303
      vertex -4.78976 17 7.50862
    endloop
  endfacet
  facet normal 0 -1 -0
    outer loop
      vertex -4.78976 17 7.50862
      vertex -13.2944 17 7.32303
      vertex -3.91662 17 7.32303
    endloop
  endfacet
  facet normal 0 -1 0
    outer loop
      vertex 4.78976 17 36.9914
      vertex 6.18034 17 41.2711
      vertex 1.62019 17 37.6651
    endloop
  endfacet
  facet normal 0 -1 -0
    outer loop
      vertex 6.18034 17 41.2711
      vertex 4.78976 17 36.9914
      vertex 10 17 39.5705
    endloop
  endfacet
  facet normal 0 -1 0
    outer loop
      vertex 7.75 17 35.6734
      vertex 10 17 39.5705
      vertex 4.78976 17 36.9914
    endloop
  endfacet
  facet normal 0 -1 -0
    outer loop
      vertex 10 17 39.5705
      vertex 7.75 17 35.6734
      vertex 13.3826 17 37.1129
    endloop
  endfacet
  facet normal 0 -1 0
    outer loop
      vertex 10.3715 17 33.7687
      vertex 13.3826 17 37.1129
      vertex 7.75 17 35.6734
    endloop
  endfacet
  facet normal 0 -1 -0
    outer loop
      vertex 13.3826 17 37.1129
      vertex 10.3715 17 33.7687
      vertex 16.1803 17 34.0057
    endloop
  endfacet
  facet normal 0 -1 0
    outer loop
      vertex 12.5398 17 31.3607
      vertex 16.1803 17 34.0057
      vertex 10.3715 17 33.7687
    endloop
  endfacet
  facet normal 0 -1 0
    outer loop
      vertex 12.5398 17 31.3607
      vertex 18.2709 17 30.3847
      vertex 16.1803 17 34.0057
    endloop
  endfacet
  facet normal 0 -1 0
    outer loop
      vertex 14.16 17 28.5544
      vertex 18.2709 17 30.3847
      vertex 12.5398 17 31.3607
    endloop
  endfacet
  facet normal 0 -1 0
    outer loop
      vertex 14.16 17 28.5544
      vertex 19.563 17 26.4082
      vertex 18.2709 17 30.3847
    endloop
  endfacet
  facet normal 0 -1 0
    outer loop
      vertex 15.1613 17 25.4726
      vertex 19.563 17 26.4082
      vertex 14.16 17 28.5544
    endloop
  endfacet
  facet normal 0 -1 0
    outer loop
      vertex 15.5 17 22.25
      vertex 19.563 17 26.4082
      vertex 15.1613 17 25.4726
    endloop
  endfacet
  facet normal 0 -1 0
    outer loop
      vertex 15.5 17 22.25
      vertex 20 17 22.25
      vertex 19.563 17 26.4082
    endloop
  endfacet
  facet normal 0 -1 0
    outer loop
      vertex 15.1613 17 19.0274
      vertex 20 17 22.25
      vertex 15.5 17 22.25
    endloop
  endfacet
  facet normal 0 -1 0
    outer loop
      vertex 15.1613 17 19.0274
      vertex 19.563 17 18.0918
      vertex 20 17 22.25
    endloop
  endfacet
  facet normal 0 -1 0
    outer loop
      vertex 14.16 17 15.9456
      vertex 19.563 17 18.0918
      vertex 15.1613 17 19.0274
    endloop
  endfacet
  facet normal 0 -1 0
    outer loop
      vertex 14.16 17 15.9456
      vertex 18.2709 17 14.1153
      vertex 19.563 17 18.0918
    endloop
  endfacet
  facet normal 0 -1 0
    outer loop
      vertex 12.5398 17 13.1393
      vertex 18.2709 17 14.1153
      vertex 14.16 17 15.9456
    endloop
  endfacet
  facet normal 0 -1 0
    outer loop
      vertex 16.1803 17 10.4943
      vertex 12.5398 17 13.1393
      vertex 10.3715 17 10.7313
    endloop
  endfacet
  facet normal 0 -1 0
    outer loop
      vertex 12.5398 17 13.1393
      vertex 16.1803 17 10.4943
      vertex 18.2709 17 14.1153
    endloop
  endfacet
  facet normal 0 -1 0
    outer loop
      vertex 13.2944 17 7.32303
      vertex 10.3715 17 10.7313
      vertex 7.75 17 8.82661
    endloop
  endfacet
  facet normal 0 -1 0
    outer loop
      vertex 13.2944 17 7.32303
      vertex 7.75 17 8.82661
      vertex 4.78976 17 7.50862
    endloop
  endfacet
  facet normal 0 -1 0
    outer loop
      vertex 10.3715 17 10.7313
      vertex 13.3826 17 7.3871
      vertex 16.1803 17 10.4943
    endloop
  endfacet
  facet normal 0 -1 0
    outer loop
      vertex 13.2944 17 7.32303
      vertex 4.78976 17 7.50862
      vertex 3.91662 17 7.32303
    endloop
  endfacet
  facet normal 0 -1 0
    outer loop
      vertex 10.3715 17 10.7313
      vertex 13.2944 17 7.32303
      vertex 13.3826 17 7.3871
    endloop
  endfacet
  facet normal -0.587785 0 0.809017
    outer loop
      vertex -13.3826 77 37.1129
      vertex -10 17 39.5705
      vertex -10 77 39.5705
    endloop
  endfacet
  facet normal -0.587785 0 0.809017
    outer loop
      vertex -10 17 39.5705
      vertex -13.3826 77 37.1129
      vertex -13.3826 17 37.1129
    endloop
  endfacet
  facet normal -0.20791 0 0.978148
    outer loop
      vertex -6.18034 77 41.2711
      vertex -2.09057 17 42.1404
      vertex -2.09057 77 42.1404
    endloop
  endfacet
  facet normal -0.20791 0 0.978148
    outer loop
      vertex -2.09057 17 42.1404
      vertex -6.18034 77 41.2711
      vertex -6.18034 17 41.2711
    endloop
  endfacet
  facet normal 0.994523 0 -0.104518
    outer loop
      vertex 20 49.25 22.25
      vertex 19.563 77 18.0918
      vertex 20 77 22.25
    endloop
  endfacet
  facet normal 0.994523 0 -0.104518
    outer loop
      vertex 19.563 77 18.0918
      vertex 20 49.25 22.25
      vertex 19.563 49.25 18.0918
    endloop
  endfacet
  facet normal 0.994496 0 -0.10477
    outer loop
      vertex 20 17 22.25
      vertex 19.9809 29.7786 22.0687
      vertex 20 30.0637 22.25
    endloop
  endfacet
  facet normal 0.994526 4.03461e-06 -0.104489
    outer loop
      vertex 20 17 22.25
      vertex 19.7909 27.608 20.2602
      vertex 19.9809 29.7786 22.0687
    endloop
  endfacet
  facet normal 0.994519 -8.92543e-06 -0.104558
    outer loop
      vertex 20 17 22.25
      vertex 19.6075 25.9209 18.5159
      vertex 19.7909 27.608 20.2602
    endloop
  endfacet
  facet normal 0.994535 5.75136e-05 -0.104401
    outer loop
      vertex 20 17 22.25
      vertex 19.563 25.5828 18.0918
      vertex 19.6075 25.9209 18.5159
    endloop
  endfacet
  facet normal 0.994523 0 -0.104518
    outer loop
      vertex 19.563 25.5828 18.0918
      vertex 20 17 22.25
      vertex 19.563 17 18.0918
    endloop
  endfacet
  facet normal 0 1 0
    outer loop
      vertex 1.62019 77 37.6651
      vertex 2.09057 77 42.1404
      vertex 6.18034 77 41.2711
    endloop
  endfacet
  facet normal 0 1 0
    outer loop
      vertex 2.09057 77 42.1404
      vertex 1.62019 77 37.6651
      vertex -2.09057 77 42.1404
    endloop
  endfacet
  facet normal 0 1 0
    outer loop
      vertex 4.78976 77 36.9914
      vertex 6.18034 77 41.2711
      vertex 10 77 39.5705
    endloop
  endfacet
  facet normal 0 1 -0
    outer loop
      vertex -1.62019 77 37.6651
      vertex -2.09057 77 42.1404
      vertex 1.62019 77 37.6651
    endloop
  endfacet
  facet normal 0 1 0
    outer loop
      vertex -2.09057 77 42.1404
      vertex -1.62019 77 37.6651
      vertex -6.18034 77 41.2711
    endloop
  endfacet
  facet normal 0 1 0
    outer loop
      vertex 7.75 77 35.6734
      vertex 10 77 39.5705
      vertex 13.3826 77 37.1129
    endloop
  endfacet
  facet normal 0 1 0
    outer loop
      vertex 6.18034 77 41.2711
      vertex 4.78976 77 36.9914
      vertex 1.62019 77 37.6651
    endloop
  endfacet
  facet normal 0 1 0
    outer loop
      vertex 10 77 39.5705
      vertex 7.75 77 35.6734
      vertex 4.78976 77 36.9914
    endloop
  endfacet
  facet normal 0 1 0
    outer loop
      vertex 10.3715 77 33.7687
      vertex 13.3826 77 37.1129
      vertex 16.1803 77 34.0057
    endloop
  endfacet
  facet normal 0 1 0
    outer loop
      vertex 13.3826 77 37.1129
      vertex 10.3715 77 33.7687
      vertex 7.75 77 35.6734
    endloop
  endfacet
  facet normal 0 1 0
    outer loop
      vertex 16.1803 77 34.0057
      vertex 12.5398 77 31.3607
      vertex 10.3715 77 33.7687
    endloop
  endfacet
  facet normal 0 1 0
    outer loop
      vertex 18.2709 77 30.3847
      vertex 12.5398 77 31.3607
      vertex 16.1803 77 34.0057
    endloop
  endfacet
  facet normal 0 1 0
    outer loop
      vertex 18.2709 77 30.3847
      vertex 14.16 77 28.5544
      vertex 12.5398 77 31.3607
    endloop
  endfacet
  facet normal 0 1 0
    outer loop
      vertex 19.563 77 26.4082
      vertex 14.16 77 28.5544
      vertex 18.2709 77 30.3847
    endloop
  endfacet
  facet normal 0 1 0
    outer loop
      vertex 19.563 77 26.4082
      vertex 15.1613 77 25.4726
      vertex 14.16 77 28.5544
    endloop
  endfacet
  facet normal 0 1 0
    outer loop
      vertex 20 77 22.25
      vertex 15.1613 77 25.4726
      vertex 19.563 77 26.4082
    endloop
  endfacet
  facet normal 0 1 0
    outer loop
      vertex 20 77 22.25
      vertex 15.5 77 22.25
      vertex 15.1613 77 25.4726
    endloop
  endfacet
  facet normal 0 1 0
    outer loop
      vertex 20 77 22.25
      vertex 15.1613 77 19.0274
      vertex 15.5 77 22.25
    endloop
  endfacet
  facet normal 0 1 -0
    outer loop
      vertex 19.563 77 18.0918
      vertex 15.1613 77 19.0274
      vertex 20 77 22.25
    endloop
  endfacet
  facet normal 0 1 0
    outer loop
      vertex 19.563 77 18.0918
      vertex 14.16 77 15.9456
      vertex 15.1613 77 19.0274
    endloop
  endfacet
  facet normal 0 1 -0
    outer loop
      vertex 18.2709 77 14.1153
      vertex 14.16 77 15.9456
      vertex 19.563 77 18.0918
    endloop
  endfacet
  facet normal 0 1 0
    outer loop
      vertex 18.2709 77 14.1153
      vertex 12.5398 77 13.1393
      vertex 14.16 77 15.9456
    endloop
  endfacet
  facet normal 0 1 -0
    outer loop
      vertex 16.1803 77 10.4943
      vertex 12.5398 77 13.1393
      vertex 18.2709 77 14.1153
    endloop
  endfacet
  facet normal 0 1 0
    outer loop
      vertex 12.5398 77 13.1393
      vertex 16.1803 77 10.4943
      vertex 10.3715 77 10.7313
    endloop
  endfacet
  facet normal 0 1 -0
    outer loop
      vertex 13.3826 77 7.3871
      vertex 10.3715 77 10.7313
      vertex 16.1803 77 10.4943
    endloop
  endfacet
  facet normal 0 1 0
    outer loop
      vertex 10.3715 77 10.7313
      vertex 13.3826 77 7.3871
      vertex 7.75 77 8.82661
    endloop
  endfacet
  facet normal 0 1 -0
    outer loop
      vertex 10 77 4.92949
      vertex 7.75 77 8.82661
      vertex 13.3826 77 7.3871
    endloop
  endfacet
  facet normal 0 1 0
    outer loop
      vertex 7.75 77 8.82661
      vertex 10 77 4.92949
      vertex 4.78976 77 7.50862
    endloop
  endfacet
  facet normal 0 1 0
    outer loop
      vertex 4.78976 77 7.50862
      vertex 6.18034 77 3.22887
      vertex 1.62019 77 6.83491
    endloop
  endfacet
  facet normal 0 1 -0
    outer loop
      vertex 6.18034 77 3.22887
      vertex 4.78976 77 7.50862
      vertex 10 77 4.92949
    endloop
  endfacet
  facet normal 0 1 -0
    outer loop
      vertex -4.78976 77 36.9914
      vertex -6.18034 77 41.2711
      vertex -1.62019 77 37.6651
    endloop
  endfacet
  facet normal 0 1 0
    outer loop
      vertex -6.18034 77 41.2711
      vertex -4.78976 77 36.9914
      vertex -10 77 39.5705
    endloop
  endfacet
  facet normal 0 1 -0
    outer loop
      vertex -7.75 77 35.6734
      vertex -10 77 39.5705
      vertex -4.78976 77 36.9914
    endloop
  endfacet
  facet normal 0 1 0
    outer loop
      vertex -10 77 39.5705
      vertex -7.75 77 35.6734
      vertex -13.3826 77 37.1129
    endloop
  endfacet
  facet normal 0 1 -0
    outer loop
      vertex -10.3715 77 33.7687
      vertex -13.3826 77 37.1129
      vertex -7.75 77 35.6734
    endloop
  endfacet
  facet normal 0 1 0
    outer loop
      vertex -13.3826 77 37.1129
      vertex -10.3715 77 33.7687
      vertex -16.1803 77 34.0057
    endloop
  endfacet
  facet normal 0 1 -0
    outer loop
      vertex -12.5398 77 31.3607
      vertex -16.1803 77 34.0057
      vertex -10.3715 77 33.7687
    endloop
  endfacet
  facet normal 0 1 0
    outer loop
      vertex -12.5398 77 31.3607
      vertex -18.2709 77 30.3847
      vertex -16.1803 77 34.0057
    endloop
  endfacet
  facet normal 0 1 -0
    outer loop
      vertex -14.16 77 28.5544
      vertex -18.2709 77 30.3847
      vertex -12.5398 77 31.3607
    endloop
  endfacet
  facet normal 0 1 0
    outer loop
      vertex -14.16 77 28.5544
      vertex -19.563 77 26.4082
      vertex -18.2709 77 30.3847
    endloop
  endfacet
  facet normal 0 1 -0
    outer loop
      vertex -15.1613 77 25.4726
      vertex -19.563 77 26.4082
      vertex -14.16 77 28.5544
    endloop
  endfacet
  facet normal 0 1 -0
    outer loop
      vertex -15.5 77 22.25
      vertex -19.563 77 26.4082
      vertex -15.1613 77 25.4726
    endloop
  endfacet
  facet normal 0 1 0
    outer loop
      vertex -15.5 77 22.25
      vertex -20 77 22.25
      vertex -19.563 77 26.4082
    endloop
  endfacet
  facet normal 0 1 0
    outer loop
      vertex -15.1613 77 19.0274
      vertex -20 77 22.25
      vertex -15.5 77 22.25
    endloop
  endfacet
  facet normal 0 1 0
    outer loop
      vertex -15.1613 77 19.0274
      vertex -19.563 77 18.0918
      vertex -20 77 22.25
    endloop
  endfacet
  facet normal 0 1 0
    outer loop
      vertex -14.16 77 15.9456
      vertex -19.563 77 18.0918
      vertex -15.1613 77 19.0274
    endloop
  endfacet
  facet normal 0 1 0
    outer loop
      vertex -14.16 77 15.9456
      vertex -18.2709 77 14.1153
      vertex -19.563 77 18.0918
    endloop
  endfacet
  facet normal 0 1 0
    outer loop
      vertex -12.5398 77 13.1393
      vertex -18.2709 77 14.1153
      vertex -14.16 77 15.9456
    endloop
  endfacet
  facet normal 0 1 0
    outer loop
      vertex -16.1803 77 10.4943
      vertex -12.5398 77 13.1393
      vertex -10.3715 77 10.7313
    endloop
  endfacet
  facet normal 0 1 0
    outer loop
      vertex -12.5398 77 13.1393
      vertex -16.1803 77 10.4943
      vertex -18.2709 77 14.1153
    endloop
  endfacet
  facet normal 0 1 0
    outer loop
      vertex -13.3826 77 7.3871
      vertex -10.3715 77 10.7313
      vertex -7.75 77 8.82661
    endloop
  endfacet
  facet normal 0 1 0
    outer loop
      vertex -10 77 4.92949
      vertex -7.75 77 8.82661
      vertex -4.78976 77 7.50862
    endloop
  endfacet
  facet normal 0 1 0
    outer loop
      vertex -10.3715 77 10.7313
      vertex -13.3826 77 7.3871
      vertex -16.1803 77 10.4943
    endloop
  endfacet
  facet normal 0 1 0
    outer loop
      vertex -6.18034 77 3.22887
      vertex -4.78976 77 7.50862
      vertex -1.62019 77 6.83491
    endloop
  endfacet
  facet normal 0 1 -0
    outer loop
      vertex 2.09057 77 2.35956
      vertex 1.62019 77 6.83491
      vertex 6.18034 77 3.22887
    endloop
  endfacet
  facet normal 0 1 0
    outer loop
      vertex -7.75 77 8.82661
      vertex -10 77 4.92949
      vertex -13.3826 77 7.3871
    endloop
  endfacet
  facet normal 0 1 0
    outer loop
      vertex 1.62019 77 6.83491
      vertex 2.09057 77 2.35956
      vertex -1.62019 77 6.83491
    endloop
  endfacet
  facet normal 0 1 0
    outer loop
      vertex -4.78976 77 7.50862
      vertex -6.18034 77 3.22887
      vertex -10 77 4.92949
    endloop
  endfacet
  facet normal 0 1 0
    outer loop
      vertex -2.09057 77 2.35956
      vertex -1.62019 77 6.83491
      vertex 2.09057 77 2.35956
    endloop
  endfacet
  facet normal 0 1 0
    outer loop
      vertex -1.62019 77 6.83491
      vertex -2.09057 77 2.35956
      vertex -6.18034 77 3.22887
    endloop
  endfacet
  facet normal 0.207912 0 -0.978147
    outer loop
      vertex 2.09057 49.25 2.35956
      vertex 6.18034 77 3.22887
      vertex 6.18034 49.25 3.22887
    endloop
  endfacet
  facet normal 0.207912 0 -0.978147
    outer loop
      vertex 6.18034 77 3.22887
      vertex 2.09057 49.25 2.35956
      vertex 2.09057 77 2.35956
    endloop
  endfacet
  facet normal 0.866024 0 -0.500003
    outer loop
      vertex 18.2709 17 14.1153
      vertex 16.1803 19.5275 10.4943
      vertex 18.2709 22.4135 14.1153
    endloop
  endfacet
  facet normal 0.866024 0 -0.500003
    outer loop
      vertex 16.1803 19.5275 10.4943
      vertex 18.2709 17 14.1153
      vertex 16.1803 17 10.4943
    endloop
  endfacet
  facet normal 0.866024 0 -0.500003
    outer loop
      vertex 18.2709 49.25 14.1153
      vertex 16.1803 77 10.4943
      vertex 18.2709 77 14.1153
    endloop
  endfacet
  facet normal 0.866024 0 -0.500003
    outer loop
      vertex 16.1803 77 10.4943
      vertex 18.2709 49.25 14.1153
      vertex 16.1803 49.25 10.4943
    endloop
  endfacet
  facet normal -0.866024 0 -0.500003
    outer loop
      vertex -16.1803 49.25 10.4943
      vertex -18.2709 77 14.1153
      vertex -16.1803 77 10.4943
    endloop
  endfacet
  facet normal -0.866024 -0 -0.500003
    outer loop
      vertex -18.2709 77 14.1153
      vertex -16.1803 49.25 10.4943
      vertex -18.2709 49.25 14.1153
    endloop
  endfacet
  facet normal -0.866024 0 -0.500003
    outer loop
      vertex -18.2709 17 14.1153
      vertex -16.1803 19.5275 10.4943
      vertex -16.1803 17 10.4943
    endloop
  endfacet
  facet normal -0.866024 0 -0.500003
    outer loop
      vertex -16.1803 19.5275 10.4943
      vertex -18.2709 17 14.1153
      vertex -18.2709 22.4135 14.1153
    endloop
  endfacet
  facet normal 0.587786 0 -0.809016
    outer loop
      vertex 10 49.25 4.92949
      vertex 13.3826 77 7.3871
      vertex 13.3826 49.25 7.3871
    endloop
  endfacet
  facet normal 0.587786 0 -0.809016
    outer loop
      vertex 13.3826 77 7.3871
      vertex 10 49.25 4.92949
      vertex 10 77 4.92949
    endloop
  endfacet
  facet normal 0.587719 0 -0.809065
    outer loop
      vertex 13.3826 17 7.3871
      vertex 13.2944 17 7.32303
      vertex 13.3826 17.0511 7.3871
    endloop
  endfacet
  facet normal 0.406736 0 -0.913546
    outer loop
      vertex 6.18034 49.25 3.22887
      vertex 10 77 4.92949
      vertex 10 49.25 4.92949
    endloop
  endfacet
  facet normal 0.406736 0 -0.913546
    outer loop
      vertex 10 77 4.92949
      vertex 6.18034 49.25 3.22887
      vertex 6.18034 77 3.22887
    endloop
  endfacet
  facet normal -0.207912 0 -0.978147
    outer loop
      vertex -6.18034 49.25 3.22887
      vertex -2.09057 77 2.35956
      vertex -2.09057 49.25 2.35956
    endloop
  endfacet
  facet normal -0.207912 0 -0.978147
    outer loop
      vertex -2.09057 77 2.35956
      vertex -6.18034 49.25 3.22887
      vertex -6.18034 77 3.22887
    endloop
  endfacet
  facet normal -0.743149 0 -0.669126
    outer loop
      vertex -13.3826 49.25 7.3871
      vertex -16.1803 77 10.4943
      vertex -13.3826 77 7.3871
    endloop
  endfacet
  facet normal -0.743149 -0 -0.669126
    outer loop
      vertex -16.1803 77 10.4943
      vertex -13.3826 49.25 7.3871
      vertex -16.1803 49.25 10.4943
    endloop
  endfacet
  facet normal -0.743149 0 -0.669126
    outer loop
      vertex -16.1803 17 10.4943
      vertex -13.3826 17.0511 7.3871
      vertex -13.3826 17 7.3871
    endloop
  endfacet
  facet normal -0.743149 0 -0.669126
    outer loop
      vertex -13.3826 17.0511 7.3871
      vertex -16.1803 17 10.4943
      vertex -16.1803 19.5275 10.4943
    endloop
  endfacet
  facet normal -0.951053 0 -0.309029
    outer loop
      vertex -19.563 17 18.0918
      vertex -18.2709 22.4135 14.1153
      vertex -18.2709 17 14.1153
    endloop
  endfacet
  facet normal -0.951053 0 -0.309029
    outer loop
      vertex -18.2709 22.4135 14.1153
      vertex -19.563 17 18.0918
      vertex -19.563 25.5828 18.0918
    endloop
  endfacet
  facet normal -0.951053 0 -0.309029
    outer loop
      vertex -18.2709 49.25 14.1153
      vertex -19.563 77 18.0918
      vertex -18.2709 77 14.1153
    endloop
  endfacet
  facet normal -0.951053 -0 -0.309029
    outer loop
      vertex -19.563 77 18.0918
      vertex -18.2709 49.25 14.1153
      vertex -19.563 49.25 18.0918
    endloop
  endfacet
  facet normal -0.994523 0 -0.104518
    outer loop
      vertex -19.563 49.25 18.0918
      vertex -20 77 22.25
      vertex -19.563 77 18.0918
    endloop
  endfacet
  facet normal -0.994523 -0 -0.104518
    outer loop
      vertex -20 77 22.25
      vertex -19.563 49.25 18.0918
      vertex -20 49.25 22.25
    endloop
  endfacet
  facet normal -0.994523 0 -0.104518
    outer loop
      vertex -20 17 22.25
      vertex -19.563 25.5828 18.0918
      vertex -19.563 17 18.0918
    endloop
  endfacet
  facet normal -0.994535 5.75136e-05 -0.104401
    outer loop
      vertex -19.563 25.5828 18.0918
      vertex -20 17 22.25
      vertex -19.6075 25.9209 18.5159
    endloop
  endfacet
  facet normal -0.994519 -8.92543e-06 -0.104558
    outer loop
      vertex -19.6075 25.9209 18.5159
      vertex -20 17 22.25
      vertex -19.7909 27.608 20.2602
    endloop
  endfacet
  facet normal -0.994526 4.03461e-06 -0.104489
    outer loop
      vertex -19.7909 27.608 20.2602
      vertex -20 17 22.25
      vertex -19.9809 29.7786 22.0687
    endloop
  endfacet
  facet normal -0.994496 0 -0.10477
    outer loop
      vertex -19.9809 29.7786 22.0687
      vertex -20 17 22.25
      vertex -20 30.0637 22.25
    endloop
  endfacet
  facet normal 0.743149 0 -0.669126
    outer loop
      vertex 16.1803 17 10.4943
      vertex 13.3826 17.0511 7.3871
      vertex 16.1803 19.5275 10.4943
    endloop
  endfacet
  facet normal 0.743149 0 -0.669126
    outer loop
      vertex 13.3826 17.0511 7.3871
      vertex 16.1803 17 10.4943
      vertex 13.3826 17 7.3871
    endloop
  endfacet
  facet normal 0.743149 0 -0.669126
    outer loop
      vertex 16.1803 49.25 10.4943
      vertex 13.3826 77 7.3871
      vertex 16.1803 77 10.4943
    endloop
  endfacet
  facet normal 0.743149 0 -0.669126
    outer loop
      vertex 13.3826 77 7.3871
      vertex 16.1803 49.25 10.4943
      vertex 13.3826 49.25 7.3871
    endloop
  endfacet
  facet normal -0.406736 0 -0.913546
    outer loop
      vertex -10 49.25 4.92949
      vertex -6.18034 77 3.22887
      vertex -6.18034 49.25 3.22887
    endloop
  endfacet
  facet normal -0.406736 0 -0.913546
    outer loop
      vertex -6.18034 77 3.22887
      vertex -10 49.25 4.92949
      vertex -10 77 4.92949
    endloop
  endfacet
  facet normal -0.587719 0 -0.809065
    outer loop
      vertex -13.2944 17 7.32303
      vertex -13.3826 17 7.3871
      vertex -13.3826 17.0511 7.3871
    endloop
  endfacet
  facet normal -0.587786 0 -0.809016
    outer loop
      vertex -13.3826 49.25 7.3871
      vertex -10 77 4.92949
      vertex -10 49.25 4.92949
    endloop
  endfacet
  facet normal -0.587786 0 -0.809016
    outer loop
      vertex -10 77 4.92949
      vertex -13.3826 49.25 7.3871
      vertex -13.3826 77 7.3871
    endloop
  endfacet
  facet normal -0.866028 0 -0.499996
    outer loop
      vertex 14.16 49.25 28.5544
      vertex 12.5398 77 31.3607
      vertex 14.16 77 28.5544
    endloop
  endfacet
  facet normal -0.866028 -0 -0.499996
    outer loop
      vertex 12.5398 77 31.3607
      vertex 14.16 49.25 28.5544
      vertex 12.5398 49.25 31.3607
    endloop
  endfacet
  facet normal -0.866028 0 -0.499996
    outer loop
      vertex 12.5398 17 31.3607
      vertex 14.16 34.3231 28.5544
      vertex 14.16 17 28.5544
    endloop
  endfacet
  facet normal -0.866028 0 -0.499996
    outer loop
      vertex 14.16 34.3231 28.5544
      vertex 12.5398 17 31.3607
      vertex 12.5398 36.6523 31.3607
    endloop
  endfacet
  facet normal -0.743125 0 -0.669152
    outer loop
      vertex 12.5398 49.25 31.3607
      vertex 10.3715 77 33.7687
      vertex 12.5398 77 31.3607
    endloop
  endfacet
  facet normal -0.743125 -0 -0.669152
    outer loop
      vertex 10.3715 77 33.7687
      vertex 12.5398 49.25 31.3607
      vertex 10.3715 49.25 33.7687
    endloop
  endfacet
  facet normal -0.743125 0 -0.669152
    outer loop
      vertex 10.3715 17 33.7687
      vertex 12.5398 36.6523 31.3607
      vertex 12.5398 17 31.3607
    endloop
  endfacet
  facet normal -0.743125 0 -0.669152
    outer loop
      vertex 12.5398 36.6523 31.3607
      vertex 10.3715 17 33.7687
      vertex 10.3715 38.4946 33.7687
    endloop
  endfacet
  facet normal -0.207908 0 -0.978148
    outer loop
      vertex 1.62019 49.25 37.6651
      vertex 4.78976 77 36.9914
      vertex 4.78976 49.25 36.9914
    endloop
  endfacet
  facet normal -0.207908 0 -0.978148
    outer loop
      vertex 4.78976 77 36.9914
      vertex 1.62019 49.25 37.6651
      vertex 1.62019 77 37.6651
    endloop
  endfacet
  facet normal -0.207908 0 -0.978148
    outer loop
      vertex 1.62019 17 37.6651
      vertex 4.78976 40.6461 36.9914
      vertex 4.78976 17 36.9914
    endloop
  endfacet
  facet normal -0.207908 0 -0.978148
    outer loop
      vertex 4.78976 40.6461 36.9914
      vertex 1.62019 17 37.6651
      vertex 1.62019 41.1831 37.6651
    endloop
  endfacet
  facet normal -0.406741 0 -0.913544
    outer loop
      vertex 4.78976 49.25 36.9914
      vertex 7.75 77 35.6734
      vertex 7.75 49.25 35.6734
    endloop
  endfacet
  facet normal -0.406741 0 -0.913544
    outer loop
      vertex 7.75 77 35.6734
      vertex 4.78976 49.25 36.9914
      vertex 4.78976 77 36.9914
    endloop
  endfacet
  facet normal -0.406741 0 -0.913544
    outer loop
      vertex 4.78976 17 36.9914
      vertex 7.75 39.7695 35.6734
      vertex 7.75 17 35.6734
    endloop
  endfacet
  facet normal -0.406712 -4.47745e-06 -0.913556
    outer loop
      vertex 7.75 39.7695 35.6734
      vertex 4.78976 17 36.9914
      vertex 6.45978 40.0535 36.2478
    endloop
  endfacet
  facet normal -0.406764 0 -0.913533
    outer loop
      vertex 6.45978 40.0535 36.2478
      vertex 4.78976 17 36.9914
      vertex 4.78976 40.6461 36.9914
    endloop
  endfacet
  facet normal 0.207908 0 -0.978148
    outer loop
      vertex -4.78976 49.25 36.9914
      vertex -1.62019 77 37.6651
      vertex -1.62019 49.25 37.6651
    endloop
  endfacet
  facet normal 0.207908 0 -0.978148
    outer loop
      vertex -1.62019 77 37.6651
      vertex -4.78976 49.25 36.9914
      vertex -4.78976 77 36.9914
    endloop
  endfacet
  facet normal 0.207908 0 -0.978148
    outer loop
      vertex -4.78976 40.6461 36.9914
      vertex -1.62019 17 37.6651
      vertex -4.78976 17 36.9914
    endloop
  endfacet
  facet normal 0.207908 0 -0.978148
    outer loop
      vertex -1.62019 17 37.6651
      vertex -4.78976 40.6461 36.9914
      vertex -1.62019 41.1831 37.6651
    endloop
  endfacet
  facet normal 0.866028 0 -0.499996
    outer loop
      vertex -12.5398 49.25 31.3607
      vertex -14.16 77 28.5544
      vertex -12.5398 77 31.3607
    endloop
  endfacet
  facet normal 0.866028 0 -0.499996
    outer loop
      vertex -14.16 77 28.5544
      vertex -12.5398 49.25 31.3607
      vertex -14.16 49.25 28.5544
    endloop
  endfacet
  facet normal 0.866028 0 -0.499996
    outer loop
      vertex -12.5398 17 31.3607
      vertex -14.16 34.3231 28.5544
      vertex -12.5398 36.6523 31.3607
    endloop
  endfacet
  facet normal 0.866028 0 -0.499996
    outer loop
      vertex -14.16 34.3231 28.5544
      vertex -12.5398 17 31.3607
      vertex -14.16 17 28.5544
    endloop
  endfacet
  facet normal -0.994522 0 0.104526
    outer loop
      vertex 15.1613 49.25 19.0274
      vertex 15.5 77 22.25
      vertex 15.1613 77 19.0274
    endloop
  endfacet
  facet normal -0.994522 0 0.104526
    outer loop
      vertex 15.5 77 22.25
      vertex 15.1613 49.25 19.0274
      vertex 15.5 49.25 22.25
    endloop
  endfacet
  facet normal -0.994522 0 0.104526
    outer loop
      vertex 15.5 17 22.25
      vertex 15.1613 26.3285 19.0274
      vertex 15.1613 17 19.0274
    endloop
  endfacet
  facet normal -0.994522 0 0.104526
    outer loop
      vertex 15.1613 26.3285 19.0274
      vertex 15.5 17 22.25
      vertex 15.5 28.897 22.25
    endloop
  endfacet
  facet normal -0.95106 0 -0.309007
    outer loop
      vertex 15.1613 49.25 25.4726
      vertex 14.16 77 28.5544
      vertex 15.1613 77 25.4726
    endloop
  endfacet
  facet normal -0.95106 -0 -0.309007
    outer loop
      vertex 14.16 77 28.5544
      vertex 15.1613 49.25 25.4726
      vertex 14.16 49.25 28.5544
    endloop
  endfacet
  facet normal -0.95106 0 -0.309007
    outer loop
      vertex 14.16 17 28.5544
      vertex 15.1613 31.6087 25.4726
      vertex 15.1613 17 25.4726
    endloop
  endfacet
  facet normal -0.95106 0 -0.309007
    outer loop
      vertex 15.1613 31.6087 25.4726
      vertex 14.16 17 28.5544
      vertex 14.16 34.3231 28.5544
    endloop
  endfacet
  facet normal -0.587799 0 -0.809007
    outer loop
      vertex 7.75 49.25 35.6734
      vertex 10.3715 77 33.7687
      vertex 10.3715 49.25 33.7687
    endloop
  endfacet
  facet normal -0.587799 0 -0.809007
    outer loop
      vertex 10.3715 77 33.7687
      vertex 7.75 49.25 35.6734
      vertex 7.75 77 35.6734
    endloop
  endfacet
  facet normal -0.587799 0 -0.809007
    outer loop
      vertex 7.75 17 35.6734
      vertex 10.3715 38.4946 33.7687
      vertex 10.3715 17 33.7687
    endloop
  endfacet
  facet normal -0.587799 0 -0.809007
    outer loop
      vertex 10.3715 38.4946 33.7687
      vertex 7.75 17 35.6734
      vertex 7.75 39.7695 35.6734
    endloop
  endfacet
  facet normal 0 0 -1
    outer loop
      vertex -1.62019 49.25 37.6651
      vertex 1.62019 77 37.6651
      vertex 1.62019 49.25 37.6651
    endloop
  endfacet
  facet normal -0 0 -1
    outer loop
      vertex 1.62019 77 37.6651
      vertex -1.62019 49.25 37.6651
      vertex -1.62019 77 37.6651
    endloop
  endfacet
  facet normal 0 0 -1
    outer loop
      vertex -1.62019 17 37.6651
      vertex 1.62019 41.1831 37.6651
      vertex 1.62019 17 37.6651
    endloop
  endfacet
  facet normal -0 0 -1
    outer loop
      vertex 1.62019 41.1831 37.6651
      vertex -1.62019 17 37.6651
      vertex -1.62019 41.1831 37.6651
    endloop
  endfacet
  facet normal 0.994522 0 -0.104526
    outer loop
      vertex -15.1613 49.25 25.4726
      vertex -15.5 77 22.25
      vertex -15.1613 77 25.4726
    endloop
  endfacet
  facet normal 0.994522 0 -0.104526
    outer loop
      vertex -15.5 77 22.25
      vertex -15.1613 49.25 25.4726
      vertex -15.5 49.25 22.25
    endloop
  endfacet
  facet normal 0.994521 0 -0.104537
    outer loop
      vertex -15.1613 17 25.4726
      vertex -15.2789 30.5738 24.3538
      vertex -15.1613 31.6087 25.4726
    endloop
  endfacet
  facet normal 0.994523 1.31372e-06 -0.104521
    outer loop
      vertex -15.1613 17 25.4726
      vertex -15.5 28.897 22.25
      vertex -15.2789 30.5738 24.3538
    endloop
  endfacet
  facet normal 0.994522 0 -0.104526
    outer loop
      vertex -15.5 28.897 22.25
      vertex -15.1613 17 25.4726
      vertex -15.5 17 22.25
    endloop
  endfacet
  facet normal 0.743125 0 -0.669152
    outer loop
      vertex -10.3715 49.25 33.7687
      vertex -12.5398 77 31.3607
      vertex -10.3715 77 33.7687
    endloop
  endfacet
  facet normal 0.743125 0 -0.669152
    outer loop
      vertex -12.5398 77 31.3607
      vertex -10.3715 49.25 33.7687
      vertex -12.5398 49.25 31.3607
    endloop
  endfacet
  facet normal 0.743125 0 -0.669152
    outer loop
      vertex -10.3715 17 33.7687
      vertex -12.5398 36.6523 31.3607
      vertex -10.3715 38.4946 33.7687
    endloop
  endfacet
  facet normal 0.743125 0 -0.669152
    outer loop
      vertex -12.5398 36.6523 31.3607
      vertex -10.3715 17 33.7687
      vertex -12.5398 17 31.3607
    endloop
  endfacet
  facet normal 0.406741 0 -0.913544
    outer loop
      vertex -7.75 49.25 35.6734
      vertex -4.78976 77 36.9914
      vertex -4.78976 49.25 36.9914
    endloop
  endfacet
  facet normal 0.406741 0 -0.913544
    outer loop
      vertex -4.78976 77 36.9914
      vertex -7.75 49.25 35.6734
      vertex -7.75 77 35.6734
    endloop
  endfacet
  facet normal 0.406764 0 -0.913533
    outer loop
      vertex -4.78976 17 36.9914
      vertex -6.45978 40.0535 36.2478
      vertex -4.78976 40.6461 36.9914
    endloop
  endfacet
  facet normal 0.406741 0 -0.913544
    outer loop
      vertex -7.75 39.7695 35.6734
      vertex -4.78976 17 36.9914
      vertex -7.75 17 35.6734
    endloop
  endfacet
  facet normal 0.406712 -4.47745e-06 -0.913556
    outer loop
      vertex -4.78976 17 36.9914
      vertex -7.75 39.7695 35.6734
      vertex -6.45978 40.0535 36.2478
    endloop
  endfacet
  facet normal 0.587799 0 -0.809007
    outer loop
      vertex -10.3715 49.25 33.7687
      vertex -7.75 77 35.6734
      vertex -7.75 49.25 35.6734
    endloop
  endfacet
  facet normal 0.587799 0 -0.809007
    outer loop
      vertex -7.75 77 35.6734
      vertex -10.3715 49.25 33.7687
      vertex -10.3715 77 33.7687
    endloop
  endfacet
  facet normal 0.587799 0 -0.809007
    outer loop
      vertex -10.3715 38.4946 33.7687
      vertex -7.75 17 35.6734
      vertex -10.3715 17 33.7687
    endloop
  endfacet
  facet normal 0.587799 0 -0.809007
    outer loop
      vertex -7.75 17 35.6734
      vertex -10.3715 38.4946 33.7687
      vertex -7.75 39.7695 35.6734
    endloop
  endfacet
  facet normal -0.994522 0 -0.104526
    outer loop
      vertex 15.5 49.25 22.25
      vertex 15.1613 77 25.4726
      vertex 15.5 77 22.25
    endloop
  endfacet
  facet normal -0.994522 -0 -0.104526
    outer loop
      vertex 15.1613 77 25.4726
      vertex 15.5 49.25 22.25
      vertex 15.1613 49.25 25.4726
    endloop
  endfacet
  facet normal -0.994522 0 -0.104526
    outer loop
      vertex 15.1613 17 25.4726
      vertex 15.5 28.897 22.25
      vertex 15.5 17 22.25
    endloop
  endfacet
  facet normal -0.994523 1.31372e-06 -0.104521
    outer loop
      vertex 15.5 28.897 22.25
      vertex 15.1613 17 25.4726
      vertex 15.2789 30.5738 24.3538
    endloop
  endfacet
  facet normal -0.994521 0 -0.104537
    outer loop
      vertex 15.2789 30.5738 24.3538
      vertex 15.1613 17 25.4726
      vertex 15.1613 31.6087 25.4726
    endloop
  endfacet
  facet normal -0.587797 0 0.809008
    outer loop
      vertex 7.75 77 8.82661
      vertex 10.3715 49.25 10.7313
      vertex 10.3715 77 10.7313
    endloop
  endfacet
  facet normal -0.587797 0 0.809008
    outer loop
      vertex 10.3715 49.25 10.7313
      vertex 7.75 77 8.82661
      vertex 7.75 49.25 8.82661
    endloop
  endfacet
  facet normal -0.587797 0 0.809008
    outer loop
      vertex 7.75 18.1984 8.82661
      vertex 10.3715 17 10.7313
      vertex 10.3715 19.7164 10.7313
    endloop
  endfacet
  facet normal -0.587797 0 0.809008
    outer loop
      vertex 10.3715 17 10.7313
      vertex 7.75 18.1984 8.82661
      vertex 7.75 17 8.82661
    endloop
  endfacet
  facet normal 0.95106 0 -0.309007
    outer loop
      vertex -14.16 49.25 28.5544
      vertex -15.1613 77 25.4726
      vertex -14.16 77 28.5544
    endloop
  endfacet
  facet normal 0.95106 0 -0.309007
    outer loop
      vertex -15.1613 77 25.4726
      vertex -14.16 49.25 28.5544
      vertex -15.1613 49.25 25.4726
    endloop
  endfacet
  facet normal 0.95106 0 -0.309007
    outer loop
      vertex -14.16 17 28.5544
      vertex -15.1613 31.6087 25.4726
      vertex -14.16 34.3231 28.5544
    endloop
  endfacet
  facet normal 0.95106 0 -0.309007
    outer loop
      vertex -15.1613 31.6087 25.4726
      vertex -14.16 17 28.5544
      vertex -15.1613 17 25.4726
    endloop
  endfacet
  facet normal -0.95106 0 0.309007
    outer loop
      vertex 14.16 49.25 15.9456
      vertex 15.1613 77 19.0274
      vertex 14.16 77 15.9456
    endloop
  endfacet
  facet normal -0.95106 0 0.309007
    outer loop
      vertex 15.1613 77 19.0274
      vertex 14.16 49.25 15.9456
      vertex 15.1613 49.25 19.0274
    endloop
  endfacet
  facet normal -0.95106 0 0.309007
    outer loop
      vertex 15.1613 17 19.0274
      vertex 14.16 23.8723 15.9456
      vertex 14.16 17 15.9456
    endloop
  endfacet
  facet normal -0.95106 0 0.309007
    outer loop
      vertex 14.16 23.8723 15.9456
      vertex 15.1613 17 19.0274
      vertex 15.1613 26.3285 19.0274
    endloop
  endfacet
  facet normal -0.866028 0 0.499996
    outer loop
      vertex 12.5398 49.25 13.1393
      vertex 14.16 77 15.9456
      vertex 12.5398 77 13.1393
    endloop
  endfacet
  facet normal -0.866028 0 0.499996
    outer loop
      vertex 14.16 77 15.9456
      vertex 12.5398 49.25 13.1393
      vertex 14.16 49.25 15.9456
    endloop
  endfacet
  facet normal -0.866028 0 0.499996
    outer loop
      vertex 14.16 17 15.9456
      vertex 12.5398 21.6357 13.1393
      vertex 12.5398 17 13.1393
    endloop
  endfacet
  facet normal -0.866028 0 0.499996
    outer loop
      vertex 12.5398 21.6357 13.1393
      vertex 14.16 17 15.9456
      vertex 14.16 23.8723 15.9456
    endloop
  endfacet
  facet normal 0.207911 0 0.978148
    outer loop
      vertex -4.78976 77 7.50862
      vertex -1.62019 49.25 6.83491
      vertex -1.62019 77 6.83491
    endloop
  endfacet
  facet normal 0.207911 0 0.978148
    outer loop
      vertex -1.62019 49.25 6.83491
      vertex -4.78976 77 7.50862
      vertex -4.78976 49.25 7.50862
    endloop
  endfacet
  facet normal 0.20791 0 0.978148
    outer loop
      vertex -3.91662 17 7.32303
      vertex -4.78976 17.1479 7.50862
      vertex -4.78976 17 7.50862
    endloop
  endfacet
  facet normal 0.994522 -0 0.104526
    outer loop
      vertex -15.5 49.25 22.25
      vertex -15.1613 77 19.0274
      vertex -15.5 77 22.25
    endloop
  endfacet
  facet normal 0.994522 0 0.104526
    outer loop
      vertex -15.1613 77 19.0274
      vertex -15.5 49.25 22.25
      vertex -15.1613 49.25 19.0274
    endloop
  endfacet
  facet normal 0.994522 -0 0.104526
    outer loop
      vertex -15.5 17 22.25
      vertex -15.1613 26.3285 19.0274
      vertex -15.5 28.897 22.25
    endloop
  endfacet
  facet normal 0.994522 0 0.104526
    outer loop
      vertex -15.1613 26.3285 19.0274
      vertex -15.5 17 22.25
      vertex -15.1613 17 19.0274
    endloop
  endfacet
  facet normal -0.207911 0 0.978148
    outer loop
      vertex 1.62019 77 6.83491
      vertex 4.78976 49.25 7.50862
      vertex 4.78976 77 7.50862
    endloop
  endfacet
  facet normal -0.207911 0 0.978148
    outer loop
      vertex 4.78976 49.25 7.50862
      vertex 1.62019 77 6.83491
      vertex 1.62019 49.25 6.83491
    endloop
  endfacet
  facet normal -0.20791 0 0.978148
    outer loop
      vertex 4.78976 17 7.50862
      vertex 4.78976 17.1479 7.50862
      vertex 3.91662 17 7.32303
    endloop
  endfacet
  facet normal -0.406738 0 0.913545
    outer loop
      vertex 4.78976 77 7.50862
      vertex 7.75 49.25 8.82661
      vertex 7.75 77 8.82661
    endloop
  endfacet
  facet normal -0.406738 0 0.913545
    outer loop
      vertex 7.75 49.25 8.82661
      vertex 4.78976 77 7.50862
      vertex 4.78976 49.25 7.50862
    endloop
  endfacet
  facet normal -0.406738 0 0.913545
    outer loop
      vertex 4.78976 17.1479 7.50862
      vertex 7.75 17 8.82661
      vertex 7.75 18.1984 8.82661
    endloop
  endfacet
  facet normal -0.406738 0 0.913545
    outer loop
      vertex 7.75 17 8.82661
      vertex 4.78976 17.1479 7.50862
      vertex 4.78976 17 7.50862
    endloop
  endfacet
  facet normal -0.743125 0 0.669152
    outer loop
      vertex 10.3715 49.25 10.7313
      vertex 12.5398 77 13.1393
      vertex 10.3715 77 10.7313
    endloop
  endfacet
  facet normal -0.743125 0 0.669152
    outer loop
      vertex 12.5398 77 13.1393
      vertex 10.3715 49.25 10.7313
      vertex 12.5398 49.25 13.1393
    endloop
  endfacet
  facet normal -0.743125 0 0.669152
    outer loop
      vertex 12.5398 17 13.1393
      vertex 10.3715 19.7164 10.7313
      vertex 10.3715 17 10.7313
    endloop
  endfacet
  facet normal -0.743125 0 0.669152
    outer loop
      vertex 10.3715 19.7164 10.7313
      vertex 12.5398 17 13.1393
      vertex 12.5398 21.6357 13.1393
    endloop
  endfacet
  facet normal 0.587797 0 0.809008
    outer loop
      vertex -10.3715 77 10.7313
      vertex -7.75 49.25 8.82661
      vertex -7.75 77 8.82661
    endloop
  endfacet
  facet normal 0.587797 0 0.809008
    outer loop
      vertex -7.75 49.25 8.82661
      vertex -10.3715 77 10.7313
      vertex -10.3715 49.25 10.7313
    endloop
  endfacet
  facet normal 0.587797 -0 0.809008
    outer loop
      vertex -10.3715 17 10.7313
      vertex -7.75 18.1984 8.82661
      vertex -10.3715 19.7164 10.7313
    endloop
  endfacet
  facet normal 0.587797 0 0.809008
    outer loop
      vertex -7.75 18.1984 8.82661
      vertex -10.3715 17 10.7313
      vertex -7.75 17 8.82661
    endloop
  endfacet
  facet normal -0 0 1
    outer loop
      vertex -1.62019 77 6.83491
      vertex 1.62019 49.25 6.83491
      vertex 1.62019 77 6.83491
    endloop
  endfacet
  facet normal 0 0 1
    outer loop
      vertex 1.62019 49.25 6.83491
      vertex -1.62019 77 6.83491
      vertex -1.62019 49.25 6.83491
    endloop
  endfacet
  facet normal 0.406738 0 0.913545
    outer loop
      vertex -7.75 77 8.82661
      vertex -4.78976 49.25 7.50862
      vertex -4.78976 77 7.50862
    endloop
  endfacet
  facet normal 0.406738 0 0.913545
    outer loop
      vertex -4.78976 49.25 7.50862
      vertex -7.75 77 8.82661
      vertex -7.75 49.25 8.82661
    endloop
  endfacet
  facet normal 0.406738 -0 0.913545
    outer loop
      vertex -7.75 17 8.82661
      vertex -4.78976 17.1479 7.50862
      vertex -7.75 18.1984 8.82661
    endloop
  endfacet
  facet normal 0.406738 0 0.913545
    outer loop
      vertex -4.78976 17.1479 7.50862
      vertex -7.75 17 8.82661
      vertex -4.78976 17 7.50862
    endloop
  endfacet
  facet normal 0.95106 -0 0.309007
    outer loop
      vertex -15.1613 49.25 19.0274
      vertex -14.16 77 15.9456
      vertex -15.1613 77 19.0274
    endloop
  endfacet
  facet normal 0.95106 0 0.309007
    outer loop
      vertex -14.16 77 15.9456
      vertex -15.1613 49.25 19.0274
      vertex -14.16 49.25 15.9456
    endloop
  endfacet
  facet normal 0.95106 -0 0.309007
    outer loop
      vertex -15.1613 17 19.0274
      vertex -14.16 23.8723 15.9456
      vertex -15.1613 26.3285 19.0274
    endloop
  endfacet
  facet normal 0.95106 0 0.309007
    outer loop
      vertex -14.16 23.8723 15.9456
      vertex -15.1613 17 19.0274
      vertex -14.16 17 15.9456
    endloop
  endfacet
  facet normal 0.743125 -0 0.669152
    outer loop
      vertex -12.5398 49.25 13.1393
      vertex -10.3715 77 10.7313
      vertex -12.5398 77 13.1393
    endloop
  endfacet
  facet normal 0.743125 0 0.669152
    outer loop
      vertex -10.3715 77 10.7313
      vertex -12.5398 49.25 13.1393
      vertex -10.3715 49.25 10.7313
    endloop
  endfacet
  facet normal 0.743125 -0 0.669152
    outer loop
      vertex -12.5398 17 13.1393
      vertex -10.3715 19.7164 10.7313
      vertex -12.5398 21.6357 13.1393
    endloop
  endfacet
  facet normal 0.743125 0 0.669152
    outer loop
      vertex -10.3715 19.7164 10.7313
      vertex -12.5398 17 13.1393
      vertex -10.3715 17 10.7313
    endloop
  endfacet
  facet normal 0.866028 -0 0.499996
    outer loop
      vertex -14.16 49.25 15.9456
      vertex -12.5398 77 13.1393
      vertex -14.16 77 15.9456
    endloop
  endfacet
  facet normal 0.866028 0 0.499996
    outer loop
      vertex -12.5398 77 13.1393
      vertex -14.16 49.25 15.9456
      vertex -12.5398 49.25 13.1393
    endloop
  endfacet
  facet normal 0.866028 -0 0.499996
    outer loop
      vertex -14.16 17 15.9456
      vertex -12.5398 21.6357 13.1393
      vertex -14.16 23.8723 15.9456
    endloop
  endfacet
  facet normal 0.866028 0 0.499996
    outer loop
      vertex -12.5398 21.6357 13.1393
      vertex -14.16 17 15.9456
      vertex -12.5398 17 13.1393
    endloop
  endfacet
  facet normal -0.447214 0.894427 0
    outer loop
      vertex -20 49.25 22.25
      vertex -30 44.25 0
      vertex -30 44.25 4.5
    endloop
  endfacet
  facet normal 0 0.426777 -0.904357
    outer loop
      vertex 30 44.25 0
      vertex -2.09057 49.25 2.35956
      vertex 2.09057 49.25 2.35956
    endloop
  endfacet
  facet normal 0 0.426777 -0.904357
    outer loop
      vertex -2.09057 49.25 2.35956
      vertex 30 44.25 0
      vertex -30 44.25 0
    endloop
  endfacet
  facet normal -1 0 0
    outer loop
      vertex -30 17.25 0
      vertex -30 44.25 4.5
      vertex -30 44.25 0
    endloop
  endfacet
  facet normal -1 -0 0
    outer loop
      vertex -30 44.25 4.5
      vertex -30 17.25 0
      vertex -30 17.25 4.5
    endloop
  endfacet
  facet normal 0 0 -1
    outer loop
      vertex -30 17.25 0
      vertex 30 44.25 0
      vertex 30 17.25 0
    endloop
  endfacet
  facet normal -0 0 -1
    outer loop
      vertex 30 44.25 0
      vertex -30 17.25 0
      vertex -30 44.25 0
    endloop
  endfacet
  facet normal 1 -0 0
    outer loop
      vertex 30 17.25 4.5
      vertex 30 44.25 0
      vertex 30 44.25 4.5
    endloop
  endfacet
  facet normal 1 0 0
    outer loop
      vertex 30 44.25 0
      vertex 30 17.25 4.5
      vertex 30 17.25 0
    endloop
  endfacet
  facet normal 0.910852 -0 0.412733
    outer loop
      vertex 18.2709 44.75 30.3847
      vertex 30 44.25 4.5
      vertex 18.2709 49.25 30.3847
    endloop
  endfacet
  facet normal 0.910852 0 0.412733
    outer loop
      vertex 18.2709 44.75 30.3847
      vertex 30 17.25 4.5
      vertex 30 44.25 4.5
    endloop
  endfacet
  facet normal 0.910852 0 0.412733
    outer loop
      vertex 30 17.25 4.5
      vertex 18.2709 44.75 30.3847
      vertex 30 14.75 4.5
    endloop
  endfacet
  facet normal -0.910852 0 0.412733
    outer loop
      vertex -30 44.25 4.5
      vertex -18.2709 44.75 30.3847
      vertex -18.2709 49.25 30.3847
    endloop
  endfacet
  facet normal -0.910852 0 0.412733
    outer loop
      vertex -30 17.25 4.5
      vertex -18.2709 44.75 30.3847
      vertex -30 44.25 4.5
    endloop
  endfacet
  facet normal -0.910852 0 0.412733
    outer loop
      vertex -18.2709 44.75 30.3847
      vertex -30 17.25 4.5
      vertex -30 14.75 4.5
    endloop
  endfacet
  facet normal 0.144496 -0.718799 0.680036
    outer loop
      vertex 19.7909 27.608 20.2602
      vertex 19.6075 25.9209 18.5159
      vertex 30 14.75 4.5
    endloop
  endfacet
  facet normal 0.144534 -0.718785 0.680042
    outer loop
      vertex 6.45978 40.0535 36.2478
      vertex 10.3715 38.4946 33.7687
      vertex 7.75 39.7695 35.6734
    endloop
  endfacet
  facet normal 0.14457 -0.718747 0.680075
    outer loop
      vertex 6.45978 40.0535 36.2478
      vertex 12.5398 36.6523 31.3607
      vertex 10.3715 38.4946 33.7687
    endloop
  endfacet
  facet normal 0.144499 -0.718806 0.680028
    outer loop
      vertex 6.45978 40.0535 36.2478
      vertex 14.16 34.3231 28.5544
      vertex 12.5398 36.6523 31.3607
    endloop
  endfacet
  facet normal 0.14455 -0.718772 0.680053
    outer loop
      vertex 15.2789 30.5738 24.3538
      vertex 14.16 34.3231 28.5544
      vertex 6.45978 40.0535 36.2478
    endloop
  endfacet
  facet normal 0.144621 -0.718755 0.680056
    outer loop
      vertex 14.16 34.3231 28.5544
      vertex 15.2789 30.5738 24.3538
      vertex 15.1613 31.6087 25.4726
    endloop
  endfacet
  facet normal 0.447214 0.894427 -0
    outer loop
      vertex 30 44.25 0
      vertex 20 49.25 22.25
      vertex 30 44.25 4.5
    endloop
  endfacet
  facet normal 0.375282 0.926071 -0.0394397
    outer loop
      vertex 30 44.25 0
      vertex 19.563 49.25 18.0918
      vertex 20 49.25 22.25
    endloop
  endfacet
  facet normal -0.241545 0.960316 -0.139457
    outer loop
      vertex -16.1803 49.25 10.4943
      vertex -30 44.25 0
      vertex -18.2709 49.25 14.1153
    endloop
  endfacet
  facet normal 0.804252 0.533747 0.261329
    outer loop
      vertex 19.563 49.25 26.4082
      vertex 18.2709 49.25 30.3847
      vertex 30 44.25 4.5
    endloop
  endfacet
  facet normal 0.522858 0.850647 0.054949
    outer loop
      vertex 20 49.25 22.25
      vertex 19.563 49.25 26.4082
      vertex 30 44.25 4.5
    endloop
  endfacet
  facet normal 0.206425 0.960647 -0.185863
    outer loop
      vertex 30 44.25 0
      vertex 13.3826 49.25 7.3871
      vertex 16.1803 49.25 10.4943
    endloop
  endfacet
  facet normal 0.708638 -0.301134 0.638084
    outer loop
      vertex 19.563 36.6114 26.4082
      vertex 30 14.75 4.5
      vertex 19.1647 38.2715 27.634
    endloop
  endfacet
  facet normal 0.708629 -0.301144 0.638089
    outer loop
      vertex 30 14.75 4.5
      vertex 19.563 36.6114 26.4082
      vertex 19.7516 33.2518 24.6132
    endloop
  endfacet
  facet normal 0.862327 -0.0924105 0.497848
    outer loop
      vertex 30 14.75 4.5
      vertex 18.2709 44.75 30.3847
      vertex 19.1647 38.2715 27.634
    endloop
  endfacet
  facet normal -0.522858 0.850647 0.054949
    outer loop
      vertex -20 49.25 22.25
      vertex -30 44.25 4.5
      vertex -19.563 49.25 26.4082
    endloop
  endfacet
  facet normal 0.149632 0.929871 -0.33608
    outer loop
      vertex 30 44.25 0
      vertex 6.18034 49.25 3.22887
      vertex 10 49.25 4.92949
    endloop
  endfacet
  facet normal 0.514184 -0.484529 0.707705
    outer loop
      vertex 30 14.75 4.5
      vertex 19.7516 33.2518 24.6132
      vertex 20 30.0637 22.25
    endloop
  endfacet
  facet normal 0.514233 -0.484488 0.707698
    outer loop
      vertex 30 14.75 4.5
      vertex 20 30.0637 22.25
      vertex 19.9809 29.7786 22.0687
    endloop
  endfacet
  facet normal -0.31815 -0.623138 0.714479
    outer loop
      vertex -19.9809 29.7786 22.0687
      vertex -30 14.75 4.5
      vertex -19.7909 27.608 20.2602
    endloop
  endfacet
  facet normal -0.144496 -0.718799 0.680036
    outer loop
      vertex -19.7909 27.608 20.2602
      vertex -30 14.75 4.5
      vertex -19.6075 25.9209 18.5159
    endloop
  endfacet
  facet normal -0.144534 -0.718785 0.680042
    outer loop
      vertex -10.3715 38.4946 33.7687
      vertex -6.45978 40.0535 36.2478
      vertex -7.75 39.7695 35.6734
    endloop
  endfacet
  facet normal -0.14457 -0.718747 0.680075
    outer loop
      vertex -12.5398 36.6523 31.3607
      vertex -6.45978 40.0535 36.2478
      vertex -10.3715 38.4946 33.7687
    endloop
  endfacet
  facet normal -0.144499 -0.718806 0.680028
    outer loop
      vertex -14.16 34.3231 28.5544
      vertex -6.45978 40.0535 36.2478
      vertex -12.5398 36.6523 31.3607
    endloop
  endfacet
  facet normal -0.144621 -0.718755 0.680056
    outer loop
      vertex -15.2789 30.5738 24.3538
      vertex -14.16 34.3231 28.5544
      vertex -15.1613 31.6087 25.4726
    endloop
  endfacet
  facet normal -0.14455 -0.718772 0.680053
    outer loop
      vertex -14.16 34.3231 28.5544
      vertex -15.2789 30.5738 24.3538
      vertex -6.45978 40.0535 36.2478
    endloop
  endfacet
  facet normal -0.149632 0.929871 -0.33608
    outer loop
      vertex -6.18034 49.25 3.22887
      vertex -30 44.25 0
      vertex -10 49.25 4.92949
    endloop
  endfacet
  facet normal -0.177916 0.95309 -0.244879
    outer loop
      vertex -10 49.25 4.92949
      vertex -30 44.25 0
      vertex -13.3826 49.25 7.3871
    endloop
  endfacet
  facet normal -0.206425 0.960647 -0.185863
    outer loop
      vertex -13.3826 49.25 7.3871
      vertex -30 44.25 0
      vertex -16.1803 49.25 10.4943
    endloop
  endfacet
  facet normal -0.375282 0.926071 -0.0394397
    outer loop
      vertex -19.563 49.25 18.0918
      vertex -30 44.25 0
      vertex -20 49.25 22.25
    endloop
  endfacet
  facet normal 0 1 0
    outer loop
      vertex 4.78976 49.25 36.9914
      vertex -1.62019 49.25 37.6651
      vertex 1.62019 49.25 37.6651
    endloop
  endfacet
  facet normal 0 1 0
    outer loop
      vertex 4.78976 49.25 36.9914
      vertex -4.78976 49.25 36.9914
      vertex -1.62019 49.25 37.6651
    endloop
  endfacet
  facet normal 0 1 0
    outer loop
      vertex 7.75 49.25 35.6734
      vertex -4.78976 49.25 36.9914
      vertex 4.78976 49.25 36.9914
    endloop
  endfacet
  facet normal 0 1 0
    outer loop
      vertex 7.75 49.25 35.6734
      vertex -7.75 49.25 35.6734
      vertex -4.78976 49.25 36.9914
    endloop
  endfacet
  facet normal 0 1 0
    outer loop
      vertex 10.3715 49.25 33.7687
      vertex -7.75 49.25 35.6734
      vertex 7.75 49.25 35.6734
    endloop
  endfacet
  facet normal 0 1 0
    outer loop
      vertex 10.3715 49.25 33.7687
      vertex -10.3715 49.25 33.7687
      vertex -7.75 49.25 35.6734
    endloop
  endfacet
  facet normal 0 1 0
    outer loop
      vertex 12.5398 49.25 31.3607
      vertex -10.3715 49.25 33.7687
      vertex 10.3715 49.25 33.7687
    endloop
  endfacet
  facet normal 0 1 0
    outer loop
      vertex 12.5398 49.25 31.3607
      vertex -12.5398 49.25 31.3607
      vertex -10.3715 49.25 33.7687
    endloop
  endfacet
  facet normal 0 1 0
    outer loop
      vertex 14.16 49.25 28.5544
      vertex -12.5398 49.25 31.3607
      vertex 12.5398 49.25 31.3607
    endloop
  endfacet
  facet normal 0 1 0
    outer loop
      vertex 14.16 49.25 28.5544
      vertex -14.16 49.25 28.5544
      vertex -12.5398 49.25 31.3607
    endloop
  endfacet
  facet normal 0 1 0
    outer loop
      vertex 15.1613 49.25 25.4726
      vertex -14.16 49.25 28.5544
      vertex 14.16 49.25 28.5544
    endloop
  endfacet
  facet normal 0 1 0
    outer loop
      vertex 15.1613 49.25 25.4726
      vertex -15.1613 49.25 25.4726
      vertex -14.16 49.25 28.5544
    endloop
  endfacet
  facet normal 0 1 0
    outer loop
      vertex 15.5 49.25 22.25
      vertex -15.1613 49.25 25.4726
      vertex 15.1613 49.25 25.4726
    endloop
  endfacet
  facet normal 0 1 0
    outer loop
      vertex 15.5 49.25 22.25
      vertex -15.5 49.25 22.25
      vertex -15.1613 49.25 25.4726
    endloop
  endfacet
  facet normal 0 1 -0
    outer loop
      vertex 15.1613 49.25 19.0274
      vertex -15.5 49.25 22.25
      vertex 15.5 49.25 22.25
    endloop
  endfacet
  facet normal 0 1 0
    outer loop
      vertex 15.1613 49.25 19.0274
      vertex -15.1613 49.25 19.0274
      vertex -15.5 49.25 22.25
    endloop
  endfacet
  facet normal 0 1 -0
    outer loop
      vertex 14.16 49.25 15.9456
      vertex -15.1613 49.25 19.0274
      vertex 15.1613 49.25 19.0274
    endloop
  endfacet
  facet normal 0 1 0
    outer loop
      vertex 14.16 49.25 15.9456
      vertex -14.16 49.25 15.9456
      vertex -15.1613 49.25 19.0274
    endloop
  endfacet
  facet normal 0 1 -0
    outer loop
      vertex 12.5398 49.25 13.1393
      vertex -14.16 49.25 15.9456
      vertex 14.16 49.25 15.9456
    endloop
  endfacet
  facet normal 0 1 0
    outer loop
      vertex 12.5398 49.25 13.1393
      vertex -12.5398 49.25 13.1393
      vertex -14.16 49.25 15.9456
    endloop
  endfacet
  facet normal 0 1 -0
    outer loop
      vertex 10.3715 49.25 10.7313
      vertex -12.5398 49.25 13.1393
      vertex 12.5398 49.25 13.1393
    endloop
  endfacet
  facet normal 0 1 0
    outer loop
      vertex 10.3715 49.25 10.7313
      vertex -10.3715 49.25 10.7313
      vertex -12.5398 49.25 13.1393
    endloop
  endfacet
  facet normal 0 1 -0
    outer loop
      vertex 7.75 49.25 8.82661
      vertex -10.3715 49.25 10.7313
      vertex 10.3715 49.25 10.7313
    endloop
  endfacet
  facet normal 0 1 0
    outer loop
      vertex 7.75 49.25 8.82661
      vertex -7.75 49.25 8.82661
      vertex -10.3715 49.25 10.7313
    endloop
  endfacet
  facet normal 0 1 -0
    outer loop
      vertex 4.78976 49.25 7.50862
      vertex -7.75 49.25 8.82661
      vertex 7.75 49.25 8.82661
    endloop
  endfacet
  facet normal 0 1 0
    outer loop
      vertex 4.78976 49.25 7.50862
      vertex -4.78976 49.25 7.50862
      vertex -7.75 49.25 8.82661
    endloop
  endfacet
  facet normal 0 1 -0
    outer loop
      vertex 1.62019 49.25 6.83491
      vertex -4.78976 49.25 7.50862
      vertex 4.78976 49.25 7.50862
    endloop
  endfacet
  facet normal 0 1 0
    outer loop
      vertex -4.78976 49.25 7.50862
      vertex 1.62019 49.25 6.83491
      vertex -1.62019 49.25 6.83491
    endloop
  endfacet
  facet normal -0.804252 0.533747 0.261329
    outer loop
      vertex -19.563 49.25 26.4082
      vertex -30 44.25 4.5
      vertex -18.2709 49.25 30.3847
    endloop
  endfacet
  facet normal 0.291685 0.951807 -0.0947785
    outer loop
      vertex 30 44.25 0
      vertex 18.2709 49.25 14.1153
      vertex 19.563 49.25 18.0918
    endloop
  endfacet
  facet normal 0.241545 0.960316 -0.139457
    outer loop
      vertex 30 44.25 0
      vertex 16.1803 49.25 10.4943
      vertex 18.2709 49.25 14.1153
    endloop
  endfacet
  facet normal 0.177916 0.95309 -0.244879
    outer loop
      vertex 30 44.25 0
      vertex 10 49.25 4.92949
      vertex 13.3826 49.25 7.3871
    endloop
  endfacet
  facet normal 0.109105 0.851246 -0.513299
    outer loop
      vertex 30 44.25 0
      vertex 2.09057 49.25 2.35956
      vertex 6.18034 49.25 3.22887
    endloop
  endfacet
  facet normal 0.31815 -0.623138 0.714479
    outer loop
      vertex 19.9809 29.7786 22.0687
      vertex 19.7909 27.608 20.2602
      vertex 30 14.75 4.5
    endloop
  endfacet
  facet normal -0.708629 -0.301144 0.638089
    outer loop
      vertex -19.563 36.6114 26.4082
      vertex -30 14.75 4.5
      vertex -19.7516 33.2518 24.6132
    endloop
  endfacet
  facet normal -0.708638 -0.301134 0.638084
    outer loop
      vertex -30 14.75 4.5
      vertex -19.563 36.6114 26.4082
      vertex -19.1647 38.2715 27.634
    endloop
  endfacet
  facet normal -0.514184 -0.484529 0.707705
    outer loop
      vertex -19.7516 33.2518 24.6132
      vertex -30 14.75 4.5
      vertex -20 30.0637 22.25
    endloop
  endfacet
  facet normal -0.514233 -0.484488 0.707698
    outer loop
      vertex -19.9809 29.7786 22.0687
      vertex -20 30.0637 22.25
      vertex -30 14.75 4.5
    endloop
  endfacet
  facet normal -0.862327 -0.0924105 0.497848
    outer loop
      vertex -18.2709 44.75 30.3847
      vertex -30 14.75 4.5
      vertex -19.1647 38.2715 27.634
    endloop
  endfacet
  facet normal 0 -0.782006 0.623271
    outer loop
      vertex -30 14.75 4.5
      vertex -3.91662 17 7.32303
      vertex -13.2944 17 7.32303
    endloop
  endfacet
  facet normal 0 -0.782006 0.623271
    outer loop
      vertex -3.91662 17 7.32303
      vertex -30 14.75 4.5
      vertex 3.91662 17 7.32303
    endloop
  endfacet
  facet normal 0 -0.782006 0.623271
    outer loop
      vertex 30 14.75 4.5
      vertex 3.91662 17 7.32303
      vertex -30 14.75 4.5
    endloop
  endfacet
  facet normal -5.88653e-05 -0.781836 0.623484
    outer loop
      vertex -13.3826 17.0511 7.3871
      vertex -30 14.75 4.5
      vertex -13.2944 17 7.32303
    endloop
  endfacet
  facet normal 4.76039e-06 -0.782015 0.62326
    outer loop
      vertex -16.1803 19.5275 10.4943
      vertex -30 14.75 4.5
      vertex -13.3826 17.0511 7.3871
    endloop
  endfacet
  facet normal -2.7782e-06 -0.782006 0.623271
    outer loop
      vertex -18.2709 22.4135 14.1153
      vertex -30 14.75 4.5
      vertex -16.1803 19.5275 10.4943
    endloop
  endfacet
  facet normal 1.81995e-06 -0.782009 0.623267
    outer loop
      vertex -19.563 25.5828 18.0918
      vertex -30 14.75 4.5
      vertex -18.2709 22.4135 14.1153
    endloop
  endfacet
  facet normal -0.000186052 -0.781938 0.623356
    outer loop
      vertex -30 14.75 4.5
      vertex -19.563 25.5828 18.0918
      vertex -19.6075 25.9209 18.5159
    endloop
  endfacet
  facet normal 4.98918e-05 -0.782092 0.623163
    outer loop
      vertex -6.45978 40.0535 36.2478
      vertex -1.62019 41.1831 37.6651
      vertex -4.78976 40.6461 36.9914
    endloop
  endfacet
  facet normal 0 -0.782009 0.623268
    outer loop
      vertex -1.62019 41.1831 37.6651
      vertex -6.45978 40.0535 36.2478
      vertex 1.62019 41.1831 37.6651
    endloop
  endfacet
  facet normal 0 -0.782009 0.623268
    outer loop
      vertex 6.45978 40.0535 36.2478
      vertex 1.62019 41.1831 37.6651
      vertex -6.45978 40.0535 36.2478
    endloop
  endfacet
  facet normal -4.98918e-05 -0.782092 0.623163
    outer loop
      vertex 1.62019 41.1831 37.6651
      vertex 6.45978 40.0535 36.2478
      vertex 4.78976 40.6461 36.9914
    endloop
  endfacet
  facet normal 0 -0.782006 0.623271
    outer loop
      vertex -15.2789 30.5738 24.3538
      vertex 6.45978 40.0535 36.2478
      vertex -6.45978 40.0535 36.2478
    endloop
  endfacet
  facet normal 0 -0.782006 0.623271
    outer loop
      vertex -15.2789 30.5738 24.3538
      vertex 15.2789 30.5738 24.3538
      vertex 6.45978 40.0535 36.2478
    endloop
  endfacet
  facet normal 2.4902e-05 -0.782 0.623278
    outer loop
      vertex -15.1613 26.3285 19.0274
      vertex -15.2789 30.5738 24.3538
      vertex -15.5 28.897 22.25
    endloop
  endfacet
  facet normal 7.26577e-05 -0.782 0.623279
    outer loop
      vertex -14.16 23.8723 15.9456
      vertex -15.2789 30.5738 24.3538
      vertex -15.1613 26.3285 19.0274
    endloop
  endfacet
  facet normal 0 -0.782004 0.623273
    outer loop
      vertex -15.2789 30.5738 24.3538
      vertex -14.16 23.8723 15.9456
      vertex 15.2789 30.5738 24.3538
    endloop
  endfacet
  facet normal -2.4902e-05 -0.782 0.623278
    outer loop
      vertex 15.2789 30.5738 24.3538
      vertex 15.1613 26.3285 19.0274
      vertex 15.5 28.897 22.25
    endloop
  endfacet
  facet normal 0 -0.782004 0.623273
    outer loop
      vertex 14.16 23.8723 15.9456
      vertex 15.2789 30.5738 24.3538
      vertex -14.16 23.8723 15.9456
    endloop
  endfacet
  facet normal -7.26577e-05 -0.782 0.623279
    outer loop
      vertex 15.2789 30.5738 24.3538
      vertex 14.16 23.8723 15.9456
      vertex 15.1613 26.3285 19.0274
    endloop
  endfacet
  facet normal 0 -0.782015 0.62326
    outer loop
      vertex -12.5398 21.6357 13.1393
      vertex 14.16 23.8723 15.9456
      vertex -14.16 23.8723 15.9456
    endloop
  endfacet
  facet normal 0 -0.782015 0.62326
    outer loop
      vertex -12.5398 21.6357 13.1393
      vertex 12.5398 21.6357 13.1393
      vertex 14.16 23.8723 15.9456
    endloop
  endfacet
  facet normal 3.84994e-05 -0.781975 0.623309
    outer loop
      vertex -3.91662 17 7.32303
      vertex -12.5398 21.6357 13.1393
      vertex -10.3715 19.7164 10.7313
    endloop
  endfacet
  facet normal 0 -0.782003 0.623274
    outer loop
      vertex -12.5398 21.6357 13.1393
      vertex -3.91662 17 7.32303
      vertex 12.5398 21.6357 13.1393
    endloop
  endfacet
  facet normal -3.3997e-05 -0.782042 0.623225
    outer loop
      vertex -3.91662 17 7.32303
      vertex -10.3715 19.7164 10.7313
      vertex -7.75 18.1984 8.82661
    endloop
  endfacet
  facet normal 0 -0.782003 0.623274
    outer loop
      vertex 3.91662 17 7.32303
      vertex 12.5398 21.6357 13.1393
      vertex -3.91662 17 7.32303
    endloop
  endfacet
  facet normal 4.10531e-05 -0.781949 0.623342
    outer loop
      vertex -3.91662 17 7.32303
      vertex -7.75 18.1984 8.82661
      vertex -4.78976 17.1479 7.50862
    endloop
  endfacet
  facet normal -3.84994e-05 -0.781975 0.623309
    outer loop
      vertex 12.5398 21.6357 13.1393
      vertex 3.91662 17 7.32303
      vertex 10.3715 19.7164 10.7313
    endloop
  endfacet
  facet normal 3.3997e-05 -0.782042 0.623225
    outer loop
      vertex 10.3715 19.7164 10.7313
      vertex 3.91662 17 7.32303
      vertex 7.75 18.1984 8.82661
    endloop
  endfacet
  facet normal -4.10531e-05 -0.781949 0.623342
    outer loop
      vertex 7.75 18.1984 8.82661
      vertex 3.91662 17 7.32303
      vertex 4.78976 17.1479 7.50862
    endloop
  endfacet
  facet normal 0.000186052 -0.781938 0.623356
    outer loop
      vertex 19.563 25.5828 18.0918
      vertex 30 14.75 4.5
      vertex 19.6075 25.9209 18.5159
    endloop
  endfacet
  facet normal -1.81995e-06 -0.782009 0.623267
    outer loop
      vertex 18.2709 22.4135 14.1153
      vertex 30 14.75 4.5
      vertex 19.563 25.5828 18.0918
    endloop
  endfacet
  facet normal 2.7782e-06 -0.782006 0.623271
    outer loop
      vertex 16.1803 19.5275 10.4943
      vertex 30 14.75 4.5
      vertex 18.2709 22.4135 14.1153
    endloop
  endfacet
  facet normal -4.76039e-06 -0.782015 0.62326
    outer loop
      vertex 13.3826 17.0511 7.3871
      vertex 30 14.75 4.5
      vertex 16.1803 19.5275 10.4943
    endloop
  endfacet
  facet normal 5.88653e-05 -0.781836 0.623484
    outer loop
      vertex 13.2944 17 7.32303
      vertex 30 14.75 4.5
      vertex 13.3826 17.0511 7.3871
    endloop
  endfacet
  facet normal 0 -0.782006 0.623271
    outer loop
      vertex 3.91662 17 7.32303
      vertex 30 14.75 4.5
      vertex 13.2944 17 7.32303
    endloop
  endfacet
  facet normal -0.109105 0.851246 -0.513299
    outer loop
      vertex -2.09057 49.25 2.35956
      vertex -30 44.25 0
      vertex -6.18034 49.25 3.22887
    endloop
  endfacet
  facet normal -0.291685 0.951807 -0.0947785
    outer loop
      vertex -18.2709 49.25 14.1153
      vertex -30 44.25 0
      vertex -19.563 49.25 18.0918
    endloop
  endfacet
  facet normal 0 0 -1
    outer loop
      vertex -30 14.75 4.5
      vertex 30 17.25 4.5
      vertex 30 14.75 4.5
    endloop
  endfacet
  facet normal -0 0 -1
    outer loop
      vertex 30 17.25 4.5
      vertex -30 14.75 4.5
      vertex -30 17.25 4.5
    endloop
  endfacet
  facet normal 0 -1 0
    outer loop
      vertex -30 17.25 0
      vertex 30 17.25 4.5
      vertex -30 17.25 4.5
    endloop
  endfacet
  facet normal 0 -1 -0
    outer loop
      vertex 30 17.25 4.5
      vertex -30 17.25 0
      vertex 30 17.25 0
    endloop
  endfacet
endsolid OpenSCAD_Model
